<?xml version="1.0" encoding="UTF-8" standalone="no"?>
<!DOCTYPE svg PUBLIC "-//W3C//DTD SVG 1.1//EN"
 "http://www.w3.org/Graphics/SVG/1.1/DTD/svg11.dtd">
<!-- Generated by graphviz version 2.40.1 (20161225.0304)
 -->
<!-- Title: kilo Pages: 1 -->
<svg width="1004pt" height="966pt"
 viewBox="0.00 0.00 1003.56 965.53" xmlns="http://www.w3.org/2000/svg" xmlns:xlink="http://www.w3.org/1999/xlink">
<g id="graph0" class="graph" transform="scale(1 1) rotate(0) translate(4 961.5326)">
<title>kilo</title>
<polygon fill="#ffffff" stroke="transparent" points="-4,4 -4,-961.5326 999.5561,-961.5326 999.5561,4 -4,4"/>
<text text-anchor="middle" x="497.7781" y="-942.3326" font-family="Times,serif" font-size="14.00" fill="#000000">10.4.0.0/16</text>
<!-- ip&#45;10&#45;0&#45;1&#45;81 -->
<g id="node1" class="node">
<title>ip&#45;10&#45;0&#45;1&#45;81</title>
<ellipse fill="none" stroke="#000000" cx="344.169" cy="-606.994" rx="60.623" ry="58.8803"/>
<text text-anchor="middle" x="344.169" y="-633.294" font-family="Times,serif" font-size="14.00" fill="#000000">aws</text>
<text text-anchor="middle" x="344.169" y="-618.294" font-family="Times,serif" font-size="14.00" fill="#000000">ip&#45;10&#45;0&#45;1&#45;81</text>
<text text-anchor="middle" x="344.169" y="-603.294" font-family="Times,serif" font-size="14.00" fill="#000000">10.2.1.0/24</text>
<text text-anchor="middle" x="344.169" y="-588.294" font-family="Times,serif" font-size="14.00" fill="#000000">10.0.1.81</text>
<text text-anchor="middle" x="344.169" y="-573.294" font-family="Times,serif" font-size="14.00" fill="#000000">10.4.0.1</text>
</g>
<!-- ip&#45;10&#45;0&#45;18&#45;139 -->
<g id="node2" class="node">
<title>ip&#45;10&#45;0&#45;18&#45;139</title>
<ellipse fill="none" stroke="#000000" cx="615.0618" cy="-686.5353" rx="70.0071" ry="48.1667"/>
<text text-anchor="middle" x="615.0618" y="-705.3353" font-family="Times,serif" font-size="14.00" fill="#000000">aws</text>
<text text-anchor="middle" x="615.0618" y="-690.3353" font-family="Times,serif" font-size="14.00" fill="#000000">ip&#45;10&#45;0&#45;18&#45;139</text>
<text text-anchor="middle" x="615.0618" y="-675.3353" font-family="Times,serif" font-size="14.00" fill="#000000">10.2.2.0/24</text>
<text text-anchor="middle" x="615.0618" y="-660.3353" font-family="Times,serif" font-size="14.00" fill="#000000">10.0.18.139</text>
</g>
<!-- ip&#45;10&#45;0&#45;1&#45;81&#45;&gt;ip&#45;10&#45;0&#45;18&#45;139 -->
<g id="edge1" class="edge">
<title>ip&#45;10&#45;0&#45;1&#45;81&#45;&gt;ip&#45;10&#45;0&#45;18&#45;139</title>
<path fill="none" stroke="#000000" d="M412.2945,-626.9975C451.454,-638.4957 500.6809,-652.9501 540.8243,-664.7372"/>
<polygon fill="#000000" stroke="#000000" points="413.1962,-623.6145 402.6152,-624.1554 411.2241,-630.331 413.1962,-623.6145"/>
<polygon fill="#000000" stroke="#000000" points="539.977,-668.1361 550.558,-667.5953 541.9492,-661.4197 539.977,-668.1361"/>
</g>
<!-- ip&#45;10&#45;0&#45;25&#45;19 -->
<g id="node3" class="node">
<title>ip&#45;10&#45;0&#45;25&#45;19</title>
<ellipse fill="none" stroke="#000000" cx="529.0553" cy="-820.3641" rx="65.1077" ry="48.1667"/>
<text text-anchor="middle" x="529.0553" y="-839.1641" font-family="Times,serif" font-size="14.00" fill="#000000">aws</text>
<text text-anchor="middle" x="529.0553" y="-824.1641" font-family="Times,serif" font-size="14.00" fill="#000000">ip&#45;10&#45;0&#45;25&#45;19</text>
<text text-anchor="middle" x="529.0553" y="-809.1641" font-family="Times,serif" font-size="14.00" fill="#000000">10.2.0.0/24</text>
<text text-anchor="middle" x="529.0553" y="-794.1641" font-family="Times,serif" font-size="14.00" fill="#000000">10.0.25.19</text>
</g>
<!-- ip&#45;10&#45;0&#45;1&#45;81&#45;&gt;ip&#45;10&#45;0&#45;25&#45;19 -->
<g id="edge2" class="edge">
<title>ip&#45;10&#45;0&#45;1&#45;81&#45;&gt;ip&#45;10&#45;0&#45;25&#45;19</title>
<path fill="none" stroke="#000000" d="M390.0745,-659.9717C419.8286,-694.3098 458.2845,-738.6903 487.1993,-772.0598"/>
<polygon fill="#000000" stroke="#000000" points="392.5724,-657.5098 383.3786,-652.2443 387.2821,-662.0939 392.5724,-657.5098"/>
<polygon fill="#000000" stroke="#000000" points="484.7664,-774.5967 493.9602,-779.8622 490.0567,-770.0127 484.7664,-774.5967"/>
</g>
<!-- ip&#45;10&#45;0&#45;30&#45;70 -->
<g id="node4" class="node">
<title>ip&#45;10&#45;0&#45;30&#45;70</title>
<ellipse fill="none" stroke="#000000" cx="384.3486" cy="-886.4494" rx="65.1077" ry="48.1667"/>
<text text-anchor="middle" x="384.3486" y="-905.2494" font-family="Times,serif" font-size="14.00" fill="#000000">aws</text>
<text text-anchor="middle" x="384.3486" y="-890.2494" font-family="Times,serif" font-size="14.00" fill="#000000">ip&#45;10&#45;0&#45;30&#45;70</text>
<text text-anchor="middle" x="384.3486" y="-875.2494" font-family="Times,serif" font-size="14.00" fill="#000000">10.2.4.0/24</text>
<text text-anchor="middle" x="384.3486" y="-860.2494" font-family="Times,serif" font-size="14.00" fill="#000000">10.0.30.70</text>
</g>
<!-- ip&#45;10&#45;0&#45;1&#45;81&#45;&gt;ip&#45;10&#45;0&#45;30&#45;70 -->
<g id="edge3" class="edge">
<title>ip&#45;10&#45;0&#45;1&#45;81&#45;&gt;ip&#45;10&#45;0&#45;30&#45;70</title>
<path fill="none" stroke="#000000" d="M354.0092,-675.4337C360.7548,-722.3504 369.6062,-783.9132 376.0059,-828.4244"/>
<polygon fill="#000000" stroke="#000000" points="357.4307,-674.6369 352.5431,-665.2369 350.5019,-675.6332 357.4307,-674.6369"/>
<polygon fill="#000000" stroke="#000000" points="372.567,-829.1005 377.4546,-838.5005 379.4958,-828.1042 372.567,-829.1005"/>
</g>
<!-- ip&#45;10&#45;0&#45;37&#45;193 -->
<g id="node5" class="node">
<title>ip&#45;10&#45;0&#45;37&#45;193</title>
<ellipse fill="none" stroke="#000000" cx="226.8853" cy="-863.8096" rx="70.0071" ry="48.1667"/>
<text text-anchor="middle" x="226.8853" y="-882.6096" font-family="Times,serif" font-size="14.00" fill="#000000">aws</text>
<text text-anchor="middle" x="226.8853" y="-867.6096" font-family="Times,serif" font-size="14.00" fill="#000000">ip&#45;10&#45;0&#45;37&#45;193</text>
<text text-anchor="middle" x="226.8853" y="-852.6096" font-family="Times,serif" font-size="14.00" fill="#000000">10.2.3.0/24</text>
<text text-anchor="middle" x="226.8853" y="-837.6096" font-family="Times,serif" font-size="14.00" fill="#000000">10.0.37.193</text>
</g>
<!-- ip&#45;10&#45;0&#45;1&#45;81&#45;&gt;ip&#45;10&#45;0&#45;37&#45;193 -->
<g id="edge4" class="edge">
<title>ip&#45;10&#45;0&#45;1&#45;81&#45;&gt;ip&#45;10&#45;0&#45;37&#45;193</title>
<path fill="none" stroke="#000000" d="M315.3699,-670.0552C295.9976,-712.4747 270.7015,-767.8655 252.1201,-808.553"/>
<polygon fill="#000000" stroke="#000000" points="318.612,-671.3813 319.5825,-660.831 312.2446,-668.4733 318.612,-671.3813"/>
<polygon fill="#000000" stroke="#000000" points="248.8766,-807.23 247.9061,-817.7803 255.2441,-810.138 248.8766,-807.23"/>
</g>
<!-- ip&#45;10&#45;0&#45;4&#45;141 -->
<g id="node6" class="node">
<title>ip&#45;10&#45;0&#45;4&#45;141</title>
<ellipse fill="none" stroke="#000000" cx="106.6587" cy="-759.6326" rx="65.1077" ry="48.1667"/>
<text text-anchor="middle" x="106.6587" y="-778.4326" font-family="Times,serif" font-size="14.00" fill="#000000">aws</text>
<text text-anchor="middle" x="106.6587" y="-763.4326" font-family="Times,serif" font-size="14.00" fill="#000000">ip&#45;10&#45;0&#45;4&#45;141</text>
<text text-anchor="middle" x="106.6587" y="-748.4326" font-family="Times,serif" font-size="14.00" fill="#000000">10.2.7.0/24</text>
<text text-anchor="middle" x="106.6587" y="-733.4326" font-family="Times,serif" font-size="14.00" fill="#000000">10.0.4.141</text>
</g>
<!-- ip&#45;10&#45;0&#45;1&#45;81&#45;&gt;ip&#45;10&#45;0&#45;4&#45;141 -->
<g id="edge5" class="edge">
<title>ip&#45;10&#45;0&#45;1&#45;81&#45;&gt;ip&#45;10&#45;0&#45;4&#45;141</title>
<path fill="none" stroke="#000000" d="M284.718,-645.2009C247.9717,-668.8163 201.034,-698.9813 164.5764,-722.4112"/>
<polygon fill="#000000" stroke="#000000" points="286.9881,-647.9024 293.5084,-639.5516 283.2036,-642.0137 286.9881,-647.9024"/>
<polygon fill="#000000" stroke="#000000" points="162.5411,-719.5587 156.0208,-727.9095 166.3256,-725.4475 162.5411,-719.5587"/>
</g>
<!-- ip&#45;10&#45;0&#45;4&#45;62 -->
<g id="node7" class="node">
<title>ip&#45;10&#45;0&#45;4&#45;62</title>
<ellipse fill="none" stroke="#000000" cx="61.8399" cy="-606.994" rx="60.623" ry="48.1667"/>
<text text-anchor="middle" x="61.8399" y="-625.794" font-family="Times,serif" font-size="14.00" fill="#000000">aws</text>
<text text-anchor="middle" x="61.8399" y="-610.794" font-family="Times,serif" font-size="14.00" fill="#000000">ip&#45;10&#45;0&#45;4&#45;62</text>
<text text-anchor="middle" x="61.8399" y="-595.794" font-family="Times,serif" font-size="14.00" fill="#000000">10.2.5.0/24</text>
<text text-anchor="middle" x="61.8399" y="-580.794" font-family="Times,serif" font-size="14.00" fill="#000000">10.0.4.62</text>
</g>
<!-- ip&#45;10&#45;0&#45;1&#45;81&#45;&gt;ip&#45;10&#45;0&#45;4&#45;62 -->
<g id="edge6" class="edge">
<title>ip&#45;10&#45;0&#45;1&#45;81&#45;&gt;ip&#45;10&#45;0&#45;4&#45;62</title>
<path fill="none" stroke="#000000" d="M273.016,-606.994C230.2472,-606.994 175.9979,-606.994 133.1933,-606.994"/>
<polygon fill="#000000" stroke="#000000" points="273.2554,-610.4941 283.2554,-606.994 273.2554,-603.4941 273.2554,-610.4941"/>
<polygon fill="#000000" stroke="#000000" points="133.1311,-603.4941 123.1311,-606.994 133.131,-610.4941 133.1311,-603.4941"/>
</g>
<!-- ip&#45;10&#45;0&#45;47&#45;198 -->
<g id="node8" class="node">
<title>ip&#45;10&#45;0&#45;47&#45;198</title>
<ellipse fill="none" stroke="#000000" cx="106.6587" cy="-454.3554" rx="70.0071" ry="48.1667"/>
<text text-anchor="middle" x="106.6587" y="-473.1554" font-family="Times,serif" font-size="14.00" fill="#000000">aws</text>
<text text-anchor="middle" x="106.6587" y="-458.1554" font-family="Times,serif" font-size="14.00" fill="#000000">ip&#45;10&#45;0&#45;47&#45;198</text>
<text text-anchor="middle" x="106.6587" y="-443.1554" font-family="Times,serif" font-size="14.00" fill="#000000">10.2.6.0/24</text>
<text text-anchor="middle" x="106.6587" y="-428.1554" font-family="Times,serif" font-size="14.00" fill="#000000">10.0.47.198</text>
</g>
<!-- ip&#45;10&#45;0&#45;1&#45;81&#45;&gt;ip&#45;10&#45;0&#45;47&#45;198 -->
<g id="edge7" class="edge">
<title>ip&#45;10&#45;0&#45;1&#45;81&#45;&gt;ip&#45;10&#45;0&#45;47&#45;198</title>
<path fill="none" stroke="#000000" d="M284.869,-568.8842C248.7668,-545.6827 202.7849,-516.1319 166.5717,-492.8591"/>
<polygon fill="#000000" stroke="#000000" points="283.2036,-571.9744 293.5084,-574.4364 286.9881,-566.0856 283.2036,-571.9744"/>
<polygon fill="#000000" stroke="#000000" points="168.3654,-489.8515 158.0606,-487.3894 164.5809,-495.7402 168.3654,-489.8515"/>
</g>
<!-- kilo&#45;gcp&#45;worker0.squat.ai -->
<g id="node9" class="node">
<title>kilo&#45;gcp&#45;worker0.squat.ai</title>
<ellipse fill="none" stroke="#000000" cx="461.4528" cy="-350.1784" rx="109.7032" ry="58.8803"/>
<text text-anchor="middle" x="461.4528" y="-376.4784" font-family="Times,serif" font-size="14.00" fill="#000000">gcp</text>
<text text-anchor="middle" x="461.4528" y="-361.4784" font-family="Times,serif" font-size="14.00" fill="#000000">kilo&#45;gcp&#45;worker0.squat.ai</text>
<text text-anchor="middle" x="461.4528" y="-346.4784" font-family="Times,serif" font-size="14.00" fill="#000000">10.2.12.0/24</text>
<text text-anchor="middle" x="461.4528" y="-331.4784" font-family="Times,serif" font-size="14.00" fill="#000000">10.1.96.8</text>
<text text-anchor="middle" x="461.4528" y="-316.4784" font-family="Times,serif" font-size="14.00" fill="#000000">10.4.0.2</text>
</g>
<!-- ip&#45;10&#45;0&#45;1&#45;81&#45;&gt;kilo&#45;gcp&#45;worker0.squat.ai -->
<g id="edge12" class="edge">
<title>ip&#45;10&#45;0&#45;1&#45;81&#45;&gt;kilo&#45;gcp&#45;worker0.squat.ai</title>
<path fill="none" stroke="#000000" d="M372.9731,-543.9219C390.6038,-505.3159 413.1398,-455.969 431.0552,-416.7398"/>
<polygon fill="#000000" stroke="#000000" points="369.726,-542.6068 368.7555,-553.1571 376.0935,-545.5147 369.726,-542.6068"/>
<polygon fill="#000000" stroke="#000000" points="434.2995,-418.061 435.27,-407.5107 427.9321,-415.153 434.2995,-418.061"/>
</g>
<!-- kilo&#45;gcp&#45;worker1.squat.ai -->
<g id="node10" class="node">
<title>kilo&#45;gcp&#45;worker1.squat.ai</title>
<ellipse fill="none" stroke="#000000" cx="109.6016" cy="-93.3629" rx="109.7032" ry="48.1667"/>
<text text-anchor="middle" x="109.6016" y="-112.1629" font-family="Times,serif" font-size="14.00" fill="#000000">gcp</text>
<text text-anchor="middle" x="109.6016" y="-97.1629" font-family="Times,serif" font-size="14.00" fill="#000000">kilo&#45;gcp&#45;worker1.squat.ai</text>
<text text-anchor="middle" x="109.6016" y="-82.1629" font-family="Times,serif" font-size="14.00" fill="#000000">10.2.8.0/24</text>
<text text-anchor="middle" x="109.6016" y="-67.1629" font-family="Times,serif" font-size="14.00" fill="#000000">10.1.96.7</text>
</g>
<!-- kilo&#45;gcp&#45;worker0.squat.ai&#45;&gt;kilo&#45;gcp&#45;worker1.squat.ai -->
<g id="edge8" class="edge">
<title>kilo&#45;gcp&#45;worker0.squat.ai&#45;&gt;kilo&#45;gcp&#45;worker1.squat.ai</title>
<path fill="none" stroke="#000000" d="M388.2111,-296.7195C325.2056,-250.7319 235.1652,-185.0116 174.6581,-140.8476"/>
<polygon fill="#000000" stroke="#000000" points="386.367,-299.7067 396.5078,-302.7752 390.494,-294.0526 386.367,-299.7067"/>
<polygon fill="#000000" stroke="#000000" points="176.463,-137.8318 166.3222,-134.7632 172.336,-143.4859 176.463,-137.8318"/>
</g>
<!-- kilo&#45;gcp&#45;worker2.squat.ai -->
<g id="node11" class="node">
<title>kilo&#45;gcp&#45;worker2.squat.ai</title>
<ellipse fill="none" stroke="#000000" cx="424.5283" cy="-48.0833" rx="109.7032" ry="48.1667"/>
<text text-anchor="middle" x="424.5283" y="-66.8833" font-family="Times,serif" font-size="14.00" fill="#000000">gcp</text>
<text text-anchor="middle" x="424.5283" y="-51.8833" font-family="Times,serif" font-size="14.00" fill="#000000">kilo&#45;gcp&#45;worker2.squat.ai</text>
<text text-anchor="middle" x="424.5283" y="-36.8833" font-family="Times,serif" font-size="14.00" fill="#000000">10.2.10.0/24</text>
<text text-anchor="middle" x="424.5283" y="-21.8833" font-family="Times,serif" font-size="14.00" fill="#000000">10.1.96.4</text>
</g>
<!-- kilo&#45;gcp&#45;worker0.squat.ai&#45;&gt;kilo&#45;gcp&#45;worker2.squat.ai -->
<g id="edge9" class="edge">
<title>kilo&#45;gcp&#45;worker0.squat.ai&#45;&gt;kilo&#45;gcp&#45;worker2.squat.ai</title>
<path fill="none" stroke="#000000" d="M453.0351,-281.3102C446.5861,-228.5483 437.7864,-156.5538 431.6768,-106.5685"/>
<polygon fill="#000000" stroke="#000000" points="449.6021,-282.0718 454.2896,-291.5733 456.5504,-281.2225 449.6021,-282.0718"/>
<polygon fill="#000000" stroke="#000000" points="435.1415,-106.0659 430.454,-96.5644 428.1932,-106.9152 435.1415,-106.0659"/>
</g>
<!-- kilo&#45;gcp&#45;worker3.squat.ai -->
<g id="node12" class="node">
<title>kilo&#45;gcp&#45;worker3.squat.ai</title>
<ellipse fill="none" stroke="#000000" cx="713.9415" cy="-180.2539" rx="109.7032" ry="48.1667"/>
<text text-anchor="middle" x="713.9415" y="-199.0539" font-family="Times,serif" font-size="14.00" fill="#000000">gcp</text>
<text text-anchor="middle" x="713.9415" y="-184.0539" font-family="Times,serif" font-size="14.00" fill="#000000">kilo&#45;gcp&#45;worker3.squat.ai</text>
<text text-anchor="middle" x="713.9415" y="-169.0539" font-family="Times,serif" font-size="14.00" fill="#000000">10.2.9.0/24</text>
<text text-anchor="middle" x="713.9415" y="-154.0539" font-family="Times,serif" font-size="14.00" fill="#000000">10.1.96.5</text>
</g>
<!-- kilo&#45;gcp&#45;worker0.squat.ai&#45;&gt;kilo&#45;gcp&#45;worker3.squat.ai -->
<g id="edge10" class="edge">
<title>kilo&#45;gcp&#45;worker0.squat.ai&#45;&gt;kilo&#45;gcp&#45;worker3.squat.ai</title>
<path fill="none" stroke="#000000" d="M538.5422,-298.2974C572.509,-275.4378 612.1018,-248.7919 645.0663,-226.6068"/>
<polygon fill="#000000" stroke="#000000" points="536.1219,-295.7074 529.7798,-304.1944 540.0302,-301.5147 536.1219,-295.7074"/>
<polygon fill="#000000" stroke="#000000" points="647.3941,-229.259 653.7361,-220.772 643.4857,-223.4517 647.3941,-229.259"/>
</g>
<!-- kilo&#45;gcp&#45;worker4.squat.ai -->
<g id="node13" class="node">
<title>kilo&#45;gcp&#45;worker4.squat.ai</title>
<ellipse fill="none" stroke="#000000" cx="885.9546" cy="-447.9114" rx="109.7032" ry="48.1667"/>
<text text-anchor="middle" x="885.9546" y="-466.7114" font-family="Times,serif" font-size="14.00" fill="#000000">gcp</text>
<text text-anchor="middle" x="885.9546" y="-451.7114" font-family="Times,serif" font-size="14.00" fill="#000000">kilo&#45;gcp&#45;worker4.squat.ai</text>
<text text-anchor="middle" x="885.9546" y="-436.7114" font-family="Times,serif" font-size="14.00" fill="#000000">10.2.11.0/24</text>
<text text-anchor="middle" x="885.9546" y="-421.7114" font-family="Times,serif" font-size="14.00" fill="#000000">10.1.96.6</text>
</g>
<!-- kilo&#45;gcp&#45;worker0.squat.ai&#45;&gt;kilo&#45;gcp&#45;worker4.squat.ai -->
<g id="edge11" class="edge">
<title>kilo&#45;gcp&#45;worker0.squat.ai&#45;&gt;kilo&#45;gcp&#45;worker4.squat.ai</title>
<path fill="none" stroke="#000000" d="M572.0986,-375.6524C635.8498,-390.3298 715.6064,-408.6922 778.7656,-423.2333"/>
<polygon fill="#000000" stroke="#000000" points="572.8532,-372.2347 562.3229,-373.4018 571.2826,-379.0562 572.8532,-372.2347"/>
<polygon fill="#000000" stroke="#000000" points="778.2244,-426.7002 788.7548,-425.5331 779.795,-419.8787 778.2244,-426.7002"/>
</g>
</g>
</svg>
