<?xml version="1.0" encoding="UTF-8" standalone="no"?>
<!DOCTYPE svg PUBLIC "-//W3C//DTD SVG 1.1//EN"
 "http://www.w3.org/Graphics/SVG/1.1/DTD/svg11.dtd">
<!-- Generated by graphviz version 2.40.1 (0)
 -->
<!-- Title: kilo Pages: 1 -->
<svg width="1078pt" height="1137pt"
 viewBox="0.00 0.00 1078.08 1136.66" xmlns="http://www.w3.org/2000/svg" xmlns:xlink="http://www.w3.org/1999/xlink">
<g id="graph0" class="graph" transform="scale(1 1) rotate(0) translate(4 1132.6593)">
<title>kilo</title>
<polygon fill="#ffffff" stroke="transparent" points="-4,4 -4,-1132.6593 1074.0833,-1132.6593 1074.0833,4 -4,4"/>
<text text-anchor="middle" x="535.0417" y="-1113.4593" font-family="Times,serif" font-size="14.00" fill="#000000">10.4.0.0/16</text>
<!-- ip&#45;10&#45;0&#45;15&#45;186 -->
<g id="node1" class="node">
<title>ip&#45;10&#45;0&#45;15&#45;186</title>
<ellipse fill="none" stroke="#000000" cx="299.2253" cy="-482.9016" rx="70.0071" ry="58.8803"/>
<text text-anchor="middle" x="299.2253" y="-509.2016" font-family="Times,serif" font-size="14.00" fill="#000000">aws</text>
<text text-anchor="middle" x="299.2253" y="-494.2016" font-family="Times,serif" font-size="14.00" fill="#000000">ip&#45;10&#45;0&#45;15&#45;186</text>
<text text-anchor="middle" x="299.2253" y="-479.2016" font-family="Times,serif" font-size="14.00" fill="#000000">10.2.3.0/24</text>
<text text-anchor="middle" x="299.2253" y="-464.2016" font-family="Times,serif" font-size="14.00" fill="#000000">10.0.15.186</text>
<text text-anchor="middle" x="299.2253" y="-449.2016" font-family="Times,serif" font-size="14.00" fill="#000000">10.4.0.1</text>
</g>
<!-- ip&#45;10&#45;0&#45;29&#45;239 -->
<g id="node2" class="node">
<title>ip&#45;10&#45;0&#45;29&#45;239</title>
<ellipse fill="none" stroke="#000000" cx="185.106" cy="-48.0833" rx="70.0071" ry="48.1667"/>
<text text-anchor="middle" x="185.106" y="-66.8833" font-family="Times,serif" font-size="14.00" fill="#000000">aws</text>
<text text-anchor="middle" x="185.106" y="-51.8833" font-family="Times,serif" font-size="14.00" fill="#000000">ip&#45;10&#45;0&#45;29&#45;239</text>
<text text-anchor="middle" x="185.106" y="-36.8833" font-family="Times,serif" font-size="14.00" fill="#000000">10.2.4.0/24</text>
<text text-anchor="middle" x="185.106" y="-21.8833" font-family="Times,serif" font-size="14.00" fill="#000000">10.0.29.239</text>
</g>
<!-- ip&#45;10&#45;0&#45;41&#45;215 -->
<g id="node3" class="node">
<title>ip&#45;10&#45;0&#45;41&#45;215</title>
<ellipse fill="none" stroke="#000000" cx="358.1507" cy="-58.2986" rx="70.0071" ry="48.1667"/>
<text text-anchor="middle" x="358.1507" y="-77.0986" font-family="Times,serif" font-size="14.00" fill="#000000">aws</text>
<text text-anchor="middle" x="358.1507" y="-62.0986" font-family="Times,serif" font-size="14.00" fill="#000000">ip&#45;10&#45;0&#45;41&#45;215</text>
<text text-anchor="middle" x="358.1507" y="-47.0986" font-family="Times,serif" font-size="14.00" fill="#000000">10.2.2.0/24</text>
<text text-anchor="middle" x="358.1507" y="-32.0986" font-family="Times,serif" font-size="14.00" fill="#000000">10.0.41.215</text>
</g>
<!-- ip&#45;10&#45;0&#45;46&#45;197 -->
<g id="node4" class="node">
<title>ip&#45;10&#45;0&#45;46&#45;197</title>
<ellipse fill="none" stroke="#000000" cx="522.008" cy="-114.8634" rx="70.0071" ry="48.1667"/>
<text text-anchor="middle" x="522.008" y="-133.6634" font-family="Times,serif" font-size="14.00" fill="#000000">aws</text>
<text text-anchor="middle" x="522.008" y="-118.6634" font-family="Times,serif" font-size="14.00" fill="#000000">ip&#45;10&#45;0&#45;46&#45;197</text>
<text text-anchor="middle" x="522.008" y="-103.6634" font-family="Times,serif" font-size="14.00" fill="#000000">10.2.6.0/24</text>
<text text-anchor="middle" x="522.008" y="-88.6634" font-family="Times,serif" font-size="14.00" fill="#000000">10.0.46.197</text>
</g>
<!-- ip&#45;10&#45;0&#45;6&#45;0 -->
<g id="node5" class="node">
<title>ip&#45;10&#45;0&#45;6&#45;0</title>
<ellipse fill="none" stroke="#000000" cx="655.8864" cy="-205.81" rx="55.7232" ry="48.1667"/>
<text text-anchor="middle" x="655.8864" y="-224.61" font-family="Times,serif" font-size="14.00" fill="#000000">aws</text>
<text text-anchor="middle" x="655.8864" y="-209.61" font-family="Times,serif" font-size="14.00" fill="#000000">ip&#45;10&#45;0&#45;6&#45;0</text>
<text text-anchor="middle" x="655.8864" y="-194.61" font-family="Times,serif" font-size="14.00" fill="#000000">10.2.7.0/24</text>
<text text-anchor="middle" x="655.8864" y="-179.61" font-family="Times,serif" font-size="14.00" fill="#000000">10.0.6.0</text>
</g>
<!-- kilo&#45;gcp&#45;worker0.sapyens.org -->
<g id="node6" class="node">
<title>kilo&#45;gcp&#45;worker0.sapyens.org</title>
<ellipse fill="none" stroke="#000000" cx="443.9512" cy="-682.0997" rx="124.4016" ry="58.8803"/>
<text text-anchor="middle" x="443.9512" y="-708.3997" font-family="Times,serif" font-size="14.00" fill="#000000">gcp</text>
<text text-anchor="middle" x="443.9512" y="-693.3997" font-family="Times,serif" font-size="14.00" fill="#000000">kilo&#45;gcp&#45;worker0.sapyens.org</text>
<text text-anchor="middle" x="443.9512" y="-678.3997" font-family="Times,serif" font-size="14.00" fill="#000000">10.2.10.0/24</text>
<text text-anchor="middle" x="443.9512" y="-663.3997" font-family="Times,serif" font-size="14.00" fill="#000000">10.1.96.6</text>
<text text-anchor="middle" x="443.9512" y="-648.3997" font-family="Times,serif" font-size="14.00" fill="#000000">10.4.0.5</text>
</g>
<!-- kilo&#45;gcp&#45;worker1.sapyens.org -->
<g id="node7" class="node">
<title>kilo&#45;gcp&#45;worker1.sapyens.org</title>
<ellipse fill="none" stroke="#000000" cx="852.4442" cy="-306.6233" rx="124.4016" ry="48.1667"/>
<text text-anchor="middle" x="852.4442" y="-325.4233" font-family="Times,serif" font-size="14.00" fill="#000000">gcp</text>
<text text-anchor="middle" x="852.4442" y="-310.4233" font-family="Times,serif" font-size="14.00" fill="#000000">kilo&#45;gcp&#45;worker1.sapyens.org</text>
<text text-anchor="middle" x="852.4442" y="-295.4233" font-family="Times,serif" font-size="14.00" fill="#000000">10.2.12.0/24</text>
<text text-anchor="middle" x="852.4442" y="-280.4233" font-family="Times,serif" font-size="14.00" fill="#000000">10.1.96.8</text>
</g>
<!-- kilo&#45;gcp&#45;worker2.sapyens.org -->
<g id="node8" class="node">
<title>kilo&#45;gcp&#45;worker2.sapyens.org</title>
<ellipse fill="none" stroke="#000000" cx="945.6325" cy="-551.2241" rx="124.4016" ry="48.1667"/>
<text text-anchor="middle" x="945.6325" y="-570.0241" font-family="Times,serif" font-size="14.00" fill="#000000">gcp</text>
<text text-anchor="middle" x="945.6325" y="-555.0241" font-family="Times,serif" font-size="14.00" fill="#000000">kilo&#45;gcp&#45;worker2.sapyens.org</text>
<text text-anchor="middle" x="945.6325" y="-540.0241" font-family="Times,serif" font-size="14.00" fill="#000000">10.2.9.0/24</text>
<text text-anchor="middle" x="945.6325" y="-525.0241" font-family="Times,serif" font-size="14.00" fill="#000000">10.1.96.4</text>
</g>
<!-- kilo&#45;gcp&#45;worker3.sapyens.org -->
<g id="node9" class="node">
<title>kilo&#45;gcp&#45;worker3.sapyens.org</title>
<ellipse fill="none" stroke="#000000" cx="945.6325" cy="-812.9752" rx="124.4016" ry="48.1667"/>
<text text-anchor="middle" x="945.6325" y="-831.7752" font-family="Times,serif" font-size="14.00" fill="#000000">gcp</text>
<text text-anchor="middle" x="945.6325" y="-816.7752" font-family="Times,serif" font-size="14.00" fill="#000000">kilo&#45;gcp&#45;worker3.sapyens.org</text>
<text text-anchor="middle" x="945.6325" y="-801.7752" font-family="Times,serif" font-size="14.00" fill="#000000">10.2.8.0/24</text>
<text text-anchor="middle" x="945.6325" y="-786.7752" font-family="Times,serif" font-size="14.00" fill="#000000">10.1.96.5</text>
</g>
<!-- kilo&#45;gcp&#45;worker4.sapyens.org -->
<g id="node10" class="node">
<title>kilo&#45;gcp&#45;worker4.sapyens.org</title>
<ellipse fill="none" stroke="#000000" cx="852.4442" cy="-1057.576" rx="124.4016" ry="48.1667"/>
<text text-anchor="middle" x="852.4442" y="-1076.376" font-family="Times,serif" font-size="14.00" fill="#000000">gcp</text>
<text text-anchor="middle" x="852.4442" y="-1061.376" font-family="Times,serif" font-size="14.00" fill="#000000">kilo&#45;gcp&#45;worker4.sapyens.org</text>
<text text-anchor="middle" x="852.4442" y="-1046.376" font-family="Times,serif" font-size="14.00" fill="#000000">10.2.11.0/24</text>
<text text-anchor="middle" x="852.4442" y="-1031.376" font-family="Times,serif" font-size="14.00" fill="#000000">10.1.96.7</text>
</g>
<!-- ip&#45;10&#45;0&#45;3&#45;226 -->
<g id="node11" class="node">
<title>ip&#45;10&#45;0&#45;3&#45;226</title>
<ellipse fill="none" stroke="#000000" cx="65.0538" cy="-805.2109" rx="65.1077" ry="58.8803"/>
<text text-anchor="middle" x="65.0538" y="-831.5109" font-family="Times,serif" font-size="14.00" fill="#000000">ip&#45;10&#45;0&#45;3&#45;226</text>
<text text-anchor="middle" x="65.0538" y="-816.5109" font-family="Times,serif" font-size="14.00" fill="#000000">ip&#45;10&#45;0&#45;3&#45;226</text>
<text text-anchor="middle" x="65.0538" y="-801.5109" font-family="Times,serif" font-size="14.00" fill="#000000">10.2.1.0/24</text>
<text text-anchor="middle" x="65.0538" y="-786.5109" font-family="Times,serif" font-size="14.00" fill="#000000">10.0.3.226</text>
<text text-anchor="middle" x="65.0538" y="-771.5109" font-family="Times,serif" font-size="14.00" fill="#000000">10.4.0.2</text>
</g>
<!-- ip&#45;10&#45;0&#45;31&#45;112 -->
<g id="node12" class="node">
<title>ip&#45;10&#45;0&#45;31&#45;112</title>
<ellipse fill="none" stroke="#000000" cx="299.2253" cy="-881.2978" rx="70.0071" ry="58.8803"/>
<text text-anchor="middle" x="299.2253" y="-907.5978" font-family="Times,serif" font-size="14.00" fill="#000000">ip&#45;10&#45;0&#45;31&#45;112</text>
<text text-anchor="middle" x="299.2253" y="-892.5978" font-family="Times,serif" font-size="14.00" fill="#000000">ip&#45;10&#45;0&#45;31&#45;112</text>
<text text-anchor="middle" x="299.2253" y="-877.5978" font-family="Times,serif" font-size="14.00" fill="#000000">10.2.5.0/24</text>
<text text-anchor="middle" x="299.2253" y="-862.5978" font-family="Times,serif" font-size="14.00" fill="#000000">10.0.31.112</text>
<text text-anchor="middle" x="299.2253" y="-847.5978" font-family="Times,serif" font-size="14.00" fill="#000000">10.4.0.3</text>
</g>
<!-- ip&#45;10&#45;0&#45;35&#45;46 -->
<g id="node13" class="node">
<title>ip&#45;10&#45;0&#45;35&#45;46</title>
<ellipse fill="none" stroke="#000000" cx="65.0538" cy="-558.9885" rx="65.1077" ry="58.8803"/>
<text text-anchor="middle" x="65.0538" y="-585.2885" font-family="Times,serif" font-size="14.00" fill="#000000">ip&#45;10&#45;0&#45;35&#45;46</text>
<text text-anchor="middle" x="65.0538" y="-570.2885" font-family="Times,serif" font-size="14.00" fill="#000000">ip&#45;10&#45;0&#45;35&#45;46</text>
<text text-anchor="middle" x="65.0538" y="-555.2885" font-family="Times,serif" font-size="14.00" fill="#000000">10.2.0.0/24</text>
<text text-anchor="middle" x="65.0538" y="-540.2885" font-family="Times,serif" font-size="14.00" fill="#000000">10.0.35.46</text>
<text text-anchor="middle" x="65.0538" y="-525.2885" font-family="Times,serif" font-size="14.00" fill="#000000">10.4.0.4</text>
</g>
<!-- ip&#45;10&#45;0&#45;15&#45;186&#45;&gt;ip&#45;10&#45;0&#45;29&#45;239 -->
<g id="edge1" class="edge">
<title>ip&#45;10&#45;0&#45;15&#45;186&#45;&gt;ip&#45;10&#45;0&#45;29&#45;239</title>
<path fill="none" stroke="#000000" d="M281.5275,-415.4693C259.2084,-330.4288 221.2173,-185.6747 200.2037,-105.6085"/>
<polygon fill="#000000" stroke="#000000" points="278.1471,-416.3771 284.0711,-425.161 284.9178,-414.6001 278.1471,-416.3771"/>
<polygon fill="#000000" stroke="#000000" points="203.5271,-104.4839 197.6032,-95.7 196.7564,-106.2609 203.5271,-104.4839"/>
</g>
<!-- ip&#45;10&#45;0&#45;15&#45;186&#45;&gt;ip&#45;10&#45;0&#45;41&#45;215 -->
<g id="edge2" class="edge">
<title>ip&#45;10&#45;0&#45;15&#45;186&#45;&gt;ip&#45;10&#45;0&#45;41&#45;215</title>
<path fill="none" stroke="#000000" d="M308.7399,-414.341C320.2082,-331.7031 339.2797,-194.2784 350.0672,-116.5463"/>
<polygon fill="#000000" stroke="#000000" points="305.2646,-413.9219 307.3567,-424.3081 312.1982,-414.8842 305.2646,-413.9219"/>
<polygon fill="#000000" stroke="#000000" points="353.5608,-116.8338 351.4687,-106.4476 346.6272,-115.8715 353.5608,-116.8338"/>
</g>
<!-- ip&#45;10&#45;0&#45;15&#45;186&#45;&gt;ip&#45;10&#45;0&#45;46&#45;197 -->
<g id="edge3" class="edge">
<title>ip&#45;10&#45;0&#45;15&#45;186&#45;&gt;ip&#45;10&#45;0&#45;46&#45;197</title>
<path fill="none" stroke="#000000" d="M336.2154,-421.7937C379.0484,-351.0334 448.9217,-235.6024 489.6709,-168.2845"/>
<polygon fill="#000000" stroke="#000000" points="333.0923,-420.1943 330.908,-430.5615 339.0806,-423.8192 333.0923,-420.1943"/>
<polygon fill="#000000" stroke="#000000" points="492.7941,-169.8838 494.9783,-159.5166 486.8057,-166.2589 492.7941,-169.8838"/>
</g>
<!-- ip&#45;10&#45;0&#45;15&#45;186&#45;&gt;ip&#45;10&#45;0&#45;6&#45;0 -->
<g id="edge4" class="edge">
<title>ip&#45;10&#45;0&#45;15&#45;186&#45;&gt;ip&#45;10&#45;0&#45;6&#45;0</title>
<path fill="none" stroke="#000000" d="M358.8444,-436.5832C428.159,-382.7324 541.3115,-294.8238 606.1157,-244.4771"/>
<polygon fill="#000000" stroke="#000000" points="356.4555,-434.0069 350.706,-442.906 360.7501,-439.5348 356.4555,-434.0069"/>
<polygon fill="#000000" stroke="#000000" points="608.4086,-247.128 614.1582,-238.2289 604.114,-241.6001 608.4086,-247.128"/>
</g>
<!-- ip&#45;10&#45;0&#45;15&#45;186&#45;&gt;kilo&#45;gcp&#45;worker0.sapyens.org -->
<g id="edge12" class="edge">
<title>ip&#45;10&#45;0&#45;15&#45;186&#45;&gt;kilo&#45;gcp&#45;worker0.sapyens.org</title>
<path fill="none" stroke="#000000" d="M341.668,-541.319C359.1621,-565.3976 379.488,-593.3737 397.3897,-618.0133"/>
<polygon fill="#000000" stroke="#000000" points="344.4552,-539.2006 335.7457,-533.1677 338.7921,-543.3151 344.4552,-539.2006"/>
<polygon fill="#000000" stroke="#000000" points="394.6508,-620.1981 403.3602,-626.231 400.3139,-616.0836 394.6508,-620.1981"/>
</g>
<!-- ip&#45;10&#45;0&#45;15&#45;186&#45;&gt;ip&#45;10&#45;0&#45;3&#45;226 -->
<g id="edge9" class="edge">
<title>ip&#45;10&#45;0&#45;15&#45;186&#45;&gt;ip&#45;10&#45;0&#45;3&#45;226</title>
<path fill="none" stroke="#000000" d="M256.5072,-541.6979C213.9695,-600.246 149.0879,-689.5479 106.8697,-747.6563"/>
<polygon fill="#000000" stroke="#000000" points="259.5897,-543.4098 262.636,-533.2624 253.9265,-539.2953 259.5897,-543.4098"/>
<polygon fill="#000000" stroke="#000000" points="103.8569,-745.8485 100.8105,-755.996 109.52,-749.9631 103.8569,-745.8485"/>
</g>
<!-- ip&#45;10&#45;0&#45;15&#45;186&#45;&gt;ip&#45;10&#45;0&#45;31&#45;112 -->
<g id="edge10" class="edge">
<title>ip&#45;10&#45;0&#45;15&#45;186&#45;&gt;ip&#45;10&#45;0&#45;31&#45;112</title>
<path fill="none" stroke="#000000" d="M299.2253,-551.704C299.2253,-624.7601 299.2253,-739.5541 299.2253,-812.5786"/>
<polygon fill="#000000" stroke="#000000" points="302.7254,-551.6863 299.2253,-541.6863 295.7254,-551.6863 302.7254,-551.6863"/>
<polygon fill="#000000" stroke="#000000" points="295.7254,-812.5967 299.2253,-822.5967 302.7254,-812.5968 295.7254,-812.5967"/>
</g>
<!-- ip&#45;10&#45;0&#45;15&#45;186&#45;&gt;ip&#45;10&#45;0&#45;35&#45;46 -->
<g id="edge11" class="edge">
<title>ip&#45;10&#45;0&#45;15&#45;186&#45;&gt;ip&#45;10&#45;0&#45;35&#45;46</title>
<path fill="none" stroke="#000000" d="M224.0726,-507.3201C195.9022,-516.4732 164.0005,-526.8388 136.2037,-535.8705"/>
<polygon fill="#000000" stroke="#000000" points="225.2551,-510.6161 233.6841,-504.1972 223.0919,-503.9587 225.2551,-510.6161"/>
<polygon fill="#000000" stroke="#000000" points="134.9847,-532.5864 126.5557,-539.0053 137.1479,-539.2438 134.9847,-532.5864"/>
</g>
<!-- kilo&#45;gcp&#45;worker0.sapyens.org&#45;&gt;kilo&#45;gcp&#45;worker1.sapyens.org -->
<g id="edge5" class="edge">
<title>kilo&#45;gcp&#45;worker0.sapyens.org&#45;&gt;kilo&#45;gcp&#45;worker1.sapyens.org</title>
<path fill="none" stroke="#000000" d="M508.9539,-622.3509C588.4452,-549.2844 721.6467,-426.8491 796.6804,-357.88"/>
<polygon fill="#000000" stroke="#000000" points="506.1743,-620.1518 501.1805,-629.4959 510.9114,-625.3055 506.1743,-620.1518"/>
<polygon fill="#000000" stroke="#000000" points="799.207,-360.3116 804.2008,-350.9674 794.4699,-355.1579 799.207,-360.3116"/>
</g>
<!-- kilo&#45;gcp&#45;worker0.sapyens.org&#45;&gt;kilo&#45;gcp&#45;worker2.sapyens.org -->
<g id="edge6" class="edge">
<title>kilo&#45;gcp&#45;worker0.sapyens.org&#45;&gt;kilo&#45;gcp&#45;worker2.sapyens.org</title>
<path fill="none" stroke="#000000" d="M562.8134,-651.0916C644.3049,-629.8326 751.7807,-601.795 832.1046,-580.8406"/>
<polygon fill="#000000" stroke="#000000" points="561.9105,-647.71 553.1178,-653.621 563.6775,-654.4833 561.9105,-647.71"/>
<polygon fill="#000000" stroke="#000000" points="833.4651,-584.1029 842.2577,-578.1919 831.698,-577.3296 833.4651,-584.1029"/>
</g>
<!-- kilo&#45;gcp&#45;worker0.sapyens.org&#45;&gt;kilo&#45;gcp&#45;worker3.sapyens.org -->
<g id="edge7" class="edge">
<title>kilo&#45;gcp&#45;worker0.sapyens.org&#45;&gt;kilo&#45;gcp&#45;worker3.sapyens.org</title>
<path fill="none" stroke="#000000" d="M562.8134,-713.1077C644.3049,-734.3667 751.7807,-762.4044 832.1046,-783.3587"/>
<polygon fill="#000000" stroke="#000000" points="563.6775,-709.7161 553.1178,-710.5784 561.9105,-716.4894 563.6775,-709.7161"/>
<polygon fill="#000000" stroke="#000000" points="831.698,-786.8698 842.2577,-786.0074 833.4651,-780.0964 831.698,-786.8698"/>
</g>
<!-- kilo&#45;gcp&#45;worker0.sapyens.org&#45;&gt;kilo&#45;gcp&#45;worker4.sapyens.org -->
<g id="edge8" class="edge">
<title>kilo&#45;gcp&#45;worker0.sapyens.org&#45;&gt;kilo&#45;gcp&#45;worker4.sapyens.org</title>
<path fill="none" stroke="#000000" d="M508.9539,-741.8485C588.4452,-814.9149 721.6467,-937.3503 796.6804,-1006.3194"/>
<polygon fill="#000000" stroke="#000000" points="510.9114,-738.8939 501.1805,-734.7034 506.1743,-744.0475 510.9114,-738.8939"/>
<polygon fill="#000000" stroke="#000000" points="794.4699,-1009.0414 804.2008,-1013.2319 799.207,-1003.8878 794.4699,-1009.0414"/>
</g>
<!-- ip&#45;10&#45;0&#45;3&#45;226&#45;&gt;kilo&#45;gcp&#45;worker0.sapyens.org -->
<g id="edge15" class="edge">
<title>ip&#45;10&#45;0&#45;3&#45;226&#45;&gt;kilo&#45;gcp&#45;worker0.sapyens.org</title>
<path fill="none" stroke="#000000" d="M136.1324,-782.1161C191.1332,-764.2452 268.3432,-739.1582 331.6749,-718.5805"/>
<polygon fill="#000000" stroke="#000000" points="134.7803,-778.8752 126.3513,-785.2941 136.9435,-785.5326 134.7803,-778.8752"/>
<polygon fill="#000000" stroke="#000000" points="332.8847,-721.8676 341.3137,-715.4486 330.7215,-715.2102 332.8847,-721.8676"/>
</g>
<!-- ip&#45;10&#45;0&#45;3&#45;226&#45;&gt;ip&#45;10&#45;0&#45;31&#45;112 -->
<g id="edge13" class="edge">
<title>ip&#45;10&#45;0&#45;3&#45;226&#45;&gt;ip&#45;10&#45;0&#45;31&#45;112</title>
<path fill="none" stroke="#000000" d="M136.1691,-828.3176C163.9678,-837.35 195.8763,-847.7177 224.0537,-856.8731"/>
<polygon fill="#000000" stroke="#000000" points="136.8659,-824.864 126.2737,-825.1025 134.7027,-831.5214 136.8659,-824.864"/>
<polygon fill="#000000" stroke="#000000" points="223.2598,-860.2952 233.852,-860.0567 225.423,-853.6378 223.2598,-860.2952"/>
</g>
<!-- ip&#45;10&#45;0&#45;3&#45;226&#45;&gt;ip&#45;10&#45;0&#45;35&#45;46 -->
<g id="edge14" class="edge">
<title>ip&#45;10&#45;0&#45;3&#45;226&#45;&gt;ip&#45;10&#45;0&#45;35&#45;46</title>
<path fill="none" stroke="#000000" d="M65.0538,-735.9743C65.0538,-702.2628 65.0538,-661.8375 65.0538,-628.1376"/>
<polygon fill="#000000" stroke="#000000" points="61.5539,-736.2345 65.0538,-746.2345 68.5539,-736.2345 61.5539,-736.2345"/>
<polygon fill="#000000" stroke="#000000" points="68.5539,-627.9098 65.0538,-617.9099 61.5539,-627.9099 68.5539,-627.9098"/>
</g>
<!-- ip&#45;10&#45;0&#45;31&#45;112&#45;&gt;kilo&#45;gcp&#45;worker0.sapyens.org -->
<g id="edge17" class="edge">
<title>ip&#45;10&#45;0&#45;31&#45;112&#45;&gt;kilo&#45;gcp&#45;worker0.sapyens.org</title>
<path fill="none" stroke="#000000" d="M341.668,-822.8804C359.1621,-798.8018 379.488,-770.8256 397.3897,-746.186"/>
<polygon fill="#000000" stroke="#000000" points="338.7921,-820.8843 335.7457,-831.0317 344.4552,-824.9988 338.7921,-820.8843"/>
<polygon fill="#000000" stroke="#000000" points="400.3139,-748.1158 403.3602,-737.9683 394.6508,-744.0013 400.3139,-748.1158"/>
</g>
<!-- ip&#45;10&#45;0&#45;31&#45;112&#45;&gt;ip&#45;10&#45;0&#45;35&#45;46 -->
<g id="edge16" class="edge">
<title>ip&#45;10&#45;0&#45;31&#45;112&#45;&gt;ip&#45;10&#45;0&#45;35&#45;46</title>
<path fill="none" stroke="#000000" d="M256.5072,-822.5014C213.9695,-763.9534 149.0879,-674.6514 106.8697,-616.543"/>
<polygon fill="#000000" stroke="#000000" points="253.9265,-824.904 262.636,-830.937 259.5897,-820.7895 253.9265,-824.904"/>
<polygon fill="#000000" stroke="#000000" points="109.52,-614.2363 100.8105,-608.2034 103.8569,-618.3508 109.52,-614.2363"/>
</g>
<!-- ip&#45;10&#45;0&#45;35&#45;46&#45;&gt;kilo&#45;gcp&#45;worker0.sapyens.org -->
<g id="edge18" class="edge">
<title>ip&#45;10&#45;0&#45;35&#45;46&#45;&gt;kilo&#45;gcp&#45;worker0.sapyens.org</title>
<path fill="none" stroke="#000000" d="M136.1324,-582.0833C191.1332,-599.9541 268.3432,-625.0412 331.6749,-645.6189"/>
<polygon fill="#000000" stroke="#000000" points="136.9435,-578.6668 126.3513,-578.9052 134.7803,-585.3242 136.9435,-578.6668"/>
<polygon fill="#000000" stroke="#000000" points="330.7215,-648.9892 341.3137,-648.7507 332.8847,-642.3318 330.7215,-648.9892"/>
</g>
</g>
</svg>
