<?xml version="1.0" encoding="UTF-8" standalone="no"?>
<!DOCTYPE svg PUBLIC "-//W3C//DTD SVG 1.1//EN"
 "http://www.w3.org/Graphics/SVG/1.1/DTD/svg11.dtd">
<!-- Generated by graphviz version 2.40.1 (0)
 -->
<!-- Title: kilo Pages: 1 -->
<svg width="921pt" height="883pt"
 viewBox="0.00 0.00 920.97 882.66" xmlns="http://www.w3.org/2000/svg" xmlns:xlink="http://www.w3.org/1999/xlink">
<g id="graph0" class="graph" transform="scale(1 1) rotate(0) translate(4 878.6564)">
<title>kilo</title>
<polygon fill="#ffffff" stroke="transparent" points="-4,4 -4,-878.6564 916.968,-878.6564 916.968,4 -4,4"/>
<text text-anchor="middle" x="456.484" y="-859.4564" font-family="Times,serif" font-size="14.00" fill="#000000">10.4.0.0/16</text>
<!-- ip&#45;10&#45;0&#45;3&#45;226 -->
<g id="node1" class="node">
<title>ip&#45;10&#45;0&#45;3&#45;226</title>
<ellipse fill="none" stroke="#000000" cx="309.5081" cy="-551.7432" rx="65.1077" ry="58.8803"/>
<text text-anchor="middle" x="309.5081" y="-578.0432" font-family="Times,serif" font-size="14.00" fill="#000000">aws</text>
<text text-anchor="middle" x="309.5081" y="-563.0432" font-family="Times,serif" font-size="14.00" fill="#000000">ip&#45;10&#45;0&#45;3&#45;226</text>
<text text-anchor="middle" x="309.5081" y="-548.0432" font-family="Times,serif" font-size="14.00" fill="#000000">10.2.1.0/24</text>
<text text-anchor="middle" x="309.5081" y="-533.0432" font-family="Times,serif" font-size="14.00" fill="#000000">10.0.3.226</text>
<text text-anchor="middle" x="309.5081" y="-518.0432" font-family="Times,serif" font-size="14.00" fill="#000000">10.4.0.1</text>
</g>
<!-- ip&#45;10&#45;0&#45;15&#45;186 -->
<g id="node2" class="node">
<title>ip&#45;10&#45;0&#45;15&#45;186</title>
<ellipse fill="none" stroke="#000000" cx="549.0126" cy="-629.5629" rx="70.0071" ry="48.1667"/>
<text text-anchor="middle" x="549.0126" y="-648.3629" font-family="Times,serif" font-size="14.00" fill="#000000">aws</text>
<text text-anchor="middle" x="549.0126" y="-633.3629" font-family="Times,serif" font-size="14.00" fill="#000000">ip&#45;10&#45;0&#45;15&#45;186</text>
<text text-anchor="middle" x="549.0126" y="-618.3629" font-family="Times,serif" font-size="14.00" fill="#000000">10.2.3.0/24</text>
<text text-anchor="middle" x="549.0126" y="-603.3629" font-family="Times,serif" font-size="14.00" fill="#000000">10.0.15.186</text>
</g>
<!-- ip&#45;10&#45;0&#45;29&#45;239 -->
<g id="node3" class="node">
<title>ip&#45;10&#45;0&#45;29&#45;239</title>
<ellipse fill="none" stroke="#000000" cx="457.5301" cy="-755.4779" rx="70.0071" ry="48.1667"/>
<text text-anchor="middle" x="457.5301" y="-774.2779" font-family="Times,serif" font-size="14.00" fill="#000000">aws</text>
<text text-anchor="middle" x="457.5301" y="-759.2779" font-family="Times,serif" font-size="14.00" fill="#000000">ip&#45;10&#45;0&#45;29&#45;239</text>
<text text-anchor="middle" x="457.5301" y="-744.2779" font-family="Times,serif" font-size="14.00" fill="#000000">10.2.4.0/24</text>
<text text-anchor="middle" x="457.5301" y="-729.2779" font-family="Times,serif" font-size="14.00" fill="#000000">10.0.29.239</text>
</g>
<!-- ip&#45;10&#45;0&#45;31&#45;112 -->
<g id="node4" class="node">
<title>ip&#45;10&#45;0&#45;31&#45;112</title>
<ellipse fill="none" stroke="#000000" cx="309.5081" cy="-803.5732" rx="70.0071" ry="48.1667"/>
<text text-anchor="middle" x="309.5081" y="-822.3732" font-family="Times,serif" font-size="14.00" fill="#000000">aws</text>
<text text-anchor="middle" x="309.5081" y="-807.3732" font-family="Times,serif" font-size="14.00" fill="#000000">ip&#45;10&#45;0&#45;31&#45;112</text>
<text text-anchor="middle" x="309.5081" y="-792.3732" font-family="Times,serif" font-size="14.00" fill="#000000">10.2.5.0/24</text>
<text text-anchor="middle" x="309.5081" y="-777.3732" font-family="Times,serif" font-size="14.00" fill="#000000">10.0.31.112</text>
</g>
<!-- ip&#45;10&#45;0&#45;35&#45;46 -->
<g id="node5" class="node">
<title>ip&#45;10&#45;0&#45;35&#45;46</title>
<ellipse fill="none" stroke="#000000" cx="161.4862" cy="-755.4779" rx="65.1077" ry="48.1667"/>
<text text-anchor="middle" x="161.4862" y="-774.2779" font-family="Times,serif" font-size="14.00" fill="#000000">aws</text>
<text text-anchor="middle" x="161.4862" y="-759.2779" font-family="Times,serif" font-size="14.00" fill="#000000">ip&#45;10&#45;0&#45;35&#45;46</text>
<text text-anchor="middle" x="161.4862" y="-744.2779" font-family="Times,serif" font-size="14.00" fill="#000000">10.2.0.0/24</text>
<text text-anchor="middle" x="161.4862" y="-729.2779" font-family="Times,serif" font-size="14.00" fill="#000000">10.0.35.46</text>
</g>
<!-- ip&#45;10&#45;0&#45;41&#45;215 -->
<g id="node6" class="node">
<title>ip&#45;10&#45;0&#45;41&#45;215</title>
<ellipse fill="none" stroke="#000000" cx="70.0036" cy="-629.5629" rx="70.0071" ry="48.1667"/>
<text text-anchor="middle" x="70.0036" y="-648.3629" font-family="Times,serif" font-size="14.00" fill="#000000">aws</text>
<text text-anchor="middle" x="70.0036" y="-633.3629" font-family="Times,serif" font-size="14.00" fill="#000000">ip&#45;10&#45;0&#45;41&#45;215</text>
<text text-anchor="middle" x="70.0036" y="-618.3629" font-family="Times,serif" font-size="14.00" fill="#000000">10.2.2.0/24</text>
<text text-anchor="middle" x="70.0036" y="-603.3629" font-family="Times,serif" font-size="14.00" fill="#000000">10.0.41.215</text>
</g>
<!-- ip&#45;10&#45;0&#45;46&#45;197 -->
<g id="node7" class="node">
<title>ip&#45;10&#45;0&#45;46&#45;197</title>
<ellipse fill="none" stroke="#000000" cx="70.0036" cy="-473.9235" rx="70.0071" ry="48.1667"/>
<text text-anchor="middle" x="70.0036" y="-492.7235" font-family="Times,serif" font-size="14.00" fill="#000000">aws</text>
<text text-anchor="middle" x="70.0036" y="-477.7235" font-family="Times,serif" font-size="14.00" fill="#000000">ip&#45;10&#45;0&#45;46&#45;197</text>
<text text-anchor="middle" x="70.0036" y="-462.7235" font-family="Times,serif" font-size="14.00" fill="#000000">10.2.6.0/24</text>
<text text-anchor="middle" x="70.0036" y="-447.7235" font-family="Times,serif" font-size="14.00" fill="#000000">10.0.46.197</text>
</g>
<!-- ip&#45;10&#45;0&#45;6&#45;0 -->
<g id="node8" class="node">
<title>ip&#45;10&#45;0&#45;6&#45;0</title>
<ellipse fill="none" stroke="#000000" cx="161.4862" cy="-348.0085" rx="55.7232" ry="48.1667"/>
<text text-anchor="middle" x="161.4862" y="-366.8085" font-family="Times,serif" font-size="14.00" fill="#000000">aws</text>
<text text-anchor="middle" x="161.4862" y="-351.8085" font-family="Times,serif" font-size="14.00" fill="#000000">ip&#45;10&#45;0&#45;6&#45;0</text>
<text text-anchor="middle" x="161.4862" y="-336.8085" font-family="Times,serif" font-size="14.00" fill="#000000">10.2.7.0/24</text>
<text text-anchor="middle" x="161.4862" y="-321.8085" font-family="Times,serif" font-size="14.00" fill="#000000">10.0.6.0</text>
</g>
<!-- kilo&#45;gcp&#45;worker0.sapyens.org -->
<g id="node9" class="node">
<title>kilo&#45;gcp&#45;worker0.sapyens.org</title>
<ellipse fill="none" stroke="#000000" cx="457.5301" cy="-348.0085" rx="124.4016" ry="58.8803"/>
<text text-anchor="middle" x="457.5301" y="-374.3085" font-family="Times,serif" font-size="14.00" fill="#000000">gcp</text>
<text text-anchor="middle" x="457.5301" y="-359.3085" font-family="Times,serif" font-size="14.00" fill="#000000">kilo&#45;gcp&#45;worker0.sapyens.org</text>
<text text-anchor="middle" x="457.5301" y="-344.3085" font-family="Times,serif" font-size="14.00" fill="#000000">10.2.10.0/24</text>
<text text-anchor="middle" x="457.5301" y="-329.3085" font-family="Times,serif" font-size="14.00" fill="#000000">10.1.96.6</text>
<text text-anchor="middle" x="457.5301" y="-314.3085" font-family="Times,serif" font-size="14.00" fill="#000000">10.4.0.2</text>
</g>
<!-- kilo&#45;gcp&#45;worker1.sapyens.org -->
<g id="node10" class="node">
<title>kilo&#45;gcp&#45;worker1.sapyens.org</title>
<ellipse fill="none" stroke="#000000" cx="309.5081" cy="-48.0833" rx="124.4016" ry="48.1667"/>
<text text-anchor="middle" x="309.5081" y="-66.8833" font-family="Times,serif" font-size="14.00" fill="#000000">gcp</text>
<text text-anchor="middle" x="309.5081" y="-51.8833" font-family="Times,serif" font-size="14.00" fill="#000000">kilo&#45;gcp&#45;worker1.sapyens.org</text>
<text text-anchor="middle" x="309.5081" y="-36.8833" font-family="Times,serif" font-size="14.00" fill="#000000">10.2.12.0/24</text>
<text text-anchor="middle" x="309.5081" y="-21.8833" font-family="Times,serif" font-size="14.00" fill="#000000">10.1.96.8</text>
</g>
<!-- kilo&#45;gcp&#45;worker2.sapyens.org -->
<g id="node11" class="node">
<title>kilo&#45;gcp&#45;worker2.sapyens.org</title>
<ellipse fill="none" stroke="#000000" cx="605.552" cy="-144.2738" rx="124.4016" ry="48.1667"/>
<text text-anchor="middle" x="605.552" y="-163.0738" font-family="Times,serif" font-size="14.00" fill="#000000">gcp</text>
<text text-anchor="middle" x="605.552" y="-148.0738" font-family="Times,serif" font-size="14.00" fill="#000000">kilo&#45;gcp&#45;worker2.sapyens.org</text>
<text text-anchor="middle" x="605.552" y="-133.0738" font-family="Times,serif" font-size="14.00" fill="#000000">10.2.9.0/24</text>
<text text-anchor="middle" x="605.552" y="-118.0738" font-family="Times,serif" font-size="14.00" fill="#000000">10.1.96.4</text>
</g>
<!-- kilo&#45;gcp&#45;worker4.sapyens.org -->
<g id="node12" class="node">
<title>kilo&#45;gcp&#45;worker4.sapyens.org</title>
<ellipse fill="none" stroke="#000000" cx="788.5172" cy="-396.1037" rx="124.4016" ry="48.1667"/>
<text text-anchor="middle" x="788.5172" y="-414.9037" font-family="Times,serif" font-size="14.00" fill="#000000">gcp</text>
<text text-anchor="middle" x="788.5172" y="-399.9037" font-family="Times,serif" font-size="14.00" fill="#000000">kilo&#45;gcp&#45;worker4.sapyens.org</text>
<text text-anchor="middle" x="788.5172" y="-384.9037" font-family="Times,serif" font-size="14.00" fill="#000000">10.2.11.0/24</text>
<text text-anchor="middle" x="788.5172" y="-369.9037" font-family="Times,serif" font-size="14.00" fill="#000000">10.1.96.7</text>
</g>
<!-- ip&#45;10&#45;0&#45;3&#45;226&#45;&gt;ip&#45;10&#45;0&#45;15&#45;186 -->
<g id="edge1" class="edge">
<title>ip&#45;10&#45;0&#45;3&#45;226&#45;&gt;ip&#45;10&#45;0&#45;15&#45;186</title>
<path fill="none" stroke="#000000" d="M380.5671,-574.8317C410.6782,-584.6153 445.7397,-596.0075 476.054,-605.8573"/>
<polygon fill="#000000" stroke="#000000" points="381.4676,-571.4442 370.8755,-571.6827 379.3044,-578.1016 381.4676,-571.4442"/>
<polygon fill="#000000" stroke="#000000" points="475.1251,-609.2355 485.7172,-608.997 477.2883,-602.5781 475.1251,-609.2355"/>
</g>
<!-- ip&#45;10&#45;0&#45;3&#45;226&#45;&gt;ip&#45;10&#45;0&#45;29&#45;239 -->
<g id="edge2" class="edge">
<title>ip&#45;10&#45;0&#45;3&#45;226&#45;&gt;ip&#45;10&#45;0&#45;29&#45;239</title>
<path fill="none" stroke="#000000" d="M351.25,-609.196C372.8603,-638.94 399.0348,-674.9661 420.0007,-703.8232"/>
<polygon fill="#000000" stroke="#000000" points="354.0495,-607.0946 345.3401,-601.0617 348.3864,-611.2092 354.0495,-607.0946"/>
<polygon fill="#000000" stroke="#000000" points="417.3384,-706.1135 426.0478,-712.1464 423.0015,-701.9989 417.3384,-706.1135"/>
</g>
<!-- ip&#45;10&#45;0&#45;3&#45;226&#45;&gt;ip&#45;10&#45;0&#45;31&#45;112 -->
<g id="edge3" class="edge">
<title>ip&#45;10&#45;0&#45;3&#45;226&#45;&gt;ip&#45;10&#45;0&#45;31&#45;112</title>
<path fill="none" stroke="#000000" d="M309.5081,-620.5161C309.5081,-659.5722 309.5081,-707.9377 309.5081,-745.1444"/>
<polygon fill="#000000" stroke="#000000" points="313.0082,-620.4683 309.5081,-610.4683 306.0082,-620.4684 313.0082,-620.4683"/>
<polygon fill="#000000" stroke="#000000" points="306.0082,-745.3256 309.5081,-755.3257 313.0082,-745.3257 306.0082,-745.3256"/>
</g>
<!-- ip&#45;10&#45;0&#45;3&#45;226&#45;&gt;ip&#45;10&#45;0&#45;35&#45;46 -->
<g id="edge4" class="edge">
<title>ip&#45;10&#45;0&#45;3&#45;226&#45;&gt;ip&#45;10&#45;0&#45;35&#45;46</title>
<path fill="none" stroke="#000000" d="M267.7243,-609.2537C245.958,-639.2125 219.5703,-675.532 198.539,-704.4791"/>
<polygon fill="#000000" stroke="#000000" points="270.6298,-611.2091 273.6761,-601.0617 264.9667,-607.0946 270.6298,-611.2091"/>
<polygon fill="#000000" stroke="#000000" points="195.5233,-702.6753 192.477,-712.8227 201.1864,-706.7898 195.5233,-702.6753"/>
</g>
<!-- ip&#45;10&#45;0&#45;3&#45;226&#45;&gt;ip&#45;10&#45;0&#45;41&#45;215 -->
<g id="edge5" class="edge">
<title>ip&#45;10&#45;0&#45;3&#45;226&#45;&gt;ip&#45;10&#45;0&#45;41&#45;215</title>
<path fill="none" stroke="#000000" d="M238.4491,-574.8317C208.3381,-584.6153 173.2765,-596.0075 142.9622,-605.8573"/>
<polygon fill="#000000" stroke="#000000" points="239.7118,-578.1016 248.1408,-571.6827 237.5486,-571.4442 239.7118,-578.1016"/>
<polygon fill="#000000" stroke="#000000" points="141.728,-602.5781 133.299,-608.997 143.8911,-609.2355 141.728,-602.5781"/>
</g>
<!-- ip&#45;10&#45;0&#45;3&#45;226&#45;&gt;ip&#45;10&#45;0&#45;46&#45;197 -->
<g id="edge6" class="edge">
<title>ip&#45;10&#45;0&#45;3&#45;226&#45;&gt;ip&#45;10&#45;0&#45;46&#45;197</title>
<path fill="none" stroke="#000000" d="M238.4491,-528.6547C208.3381,-518.8711 173.2765,-507.4789 142.9622,-497.6292"/>
<polygon fill="#000000" stroke="#000000" points="237.5486,-532.0422 248.1408,-531.8037 239.7118,-525.3848 237.5486,-532.0422"/>
<polygon fill="#000000" stroke="#000000" points="143.8911,-494.2509 133.299,-494.4894 141.728,-500.9083 143.8911,-494.2509"/>
</g>
<!-- ip&#45;10&#45;0&#45;3&#45;226&#45;&gt;ip&#45;10&#45;0&#45;6&#45;0 -->
<g id="edge7" class="edge">
<title>ip&#45;10&#45;0&#45;3&#45;226&#45;&gt;ip&#45;10&#45;0&#45;6&#45;0</title>
<path fill="none" stroke="#000000" d="M267.6194,-494.0884C245.4628,-463.5923 218.5406,-426.5371 197.3556,-397.3785"/>
<polygon fill="#000000" stroke="#000000" points="264.9667,-496.3918 273.6761,-502.4247 270.6298,-492.2773 264.9667,-496.3918"/>
<polygon fill="#000000" stroke="#000000" points="199.9692,-395.0213 191.2598,-388.9883 194.3061,-399.1358 199.9692,-395.0213"/>
</g>
<!-- ip&#45;10&#45;0&#45;3&#45;226&#45;&gt;kilo&#45;gcp&#45;worker0.sapyens.org -->
<g id="edge11" class="edge">
<title>ip&#45;10&#45;0&#45;3&#45;226&#45;&gt;kilo&#45;gcp&#45;worker0.sapyens.org</title>
<path fill="none" stroke="#000000" d="M351.3118,-494.2053C369.9012,-468.6193 391.8582,-438.3981 410.9699,-412.0931"/>
<polygon fill="#000000" stroke="#000000" points="348.3864,-492.2773 345.3401,-502.4247 354.0495,-496.3918 348.3864,-492.2773"/>
<polygon fill="#000000" stroke="#000000" points="414.0208,-413.8484 417.0671,-403.7009 408.3577,-409.7339 414.0208,-413.8484"/>
</g>
<!-- kilo&#45;gcp&#45;worker0.sapyens.org&#45;&gt;kilo&#45;gcp&#45;worker1.sapyens.org -->
<g id="edge8" class="edge">
<title>kilo&#45;gcp&#45;worker0.sapyens.org&#45;&gt;kilo&#45;gcp&#45;worker1.sapyens.org</title>
<path fill="none" stroke="#000000" d="M424.6282,-281.342C398.4344,-228.2676 362.1791,-154.8063 337.3964,-104.591"/>
<polygon fill="#000000" stroke="#000000" points="421.6008,-283.1164 429.1651,-290.5348 427.8779,-280.0184 421.6008,-283.1164"/>
<polygon fill="#000000" stroke="#000000" points="340.4717,-102.9138 332.9074,-95.4954 334.1945,-106.0118 340.4717,-102.9138"/>
</g>
<!-- kilo&#45;gcp&#45;worker0.sapyens.org&#45;&gt;kilo&#45;gcp&#45;worker2.sapyens.org -->
<g id="edge9" class="edge">
<title>kilo&#45;gcp&#45;worker0.sapyens.org&#45;&gt;kilo&#45;gcp&#45;worker2.sapyens.org</title>
<path fill="none" stroke="#000000" d="M504.074,-283.9462C523.9227,-256.6268 546.8428,-225.0801 565.8727,-198.8877"/>
<polygon fill="#000000" stroke="#000000" points="501.024,-282.1896 497.9777,-292.3371 506.6872,-286.3041 501.024,-282.1896"/>
<polygon fill="#000000" stroke="#000000" points="568.8594,-200.7314 571.9057,-190.5839 563.1962,-196.6169 568.8594,-200.7314"/>
</g>
<!-- kilo&#45;gcp&#45;worker0.sapyens.org&#45;&gt;kilo&#45;gcp&#45;worker4.sapyens.org -->
<g id="edge10" class="edge">
<title>kilo&#45;gcp&#45;worker0.sapyens.org&#45;&gt;kilo&#45;gcp&#45;worker4.sapyens.org</title>
<path fill="none" stroke="#000000" d="M586.8213,-366.7956C611.4821,-370.379 637.2706,-374.1263 661.8484,-377.6977"/>
<polygon fill="#000000" stroke="#000000" points="586.9558,-363.2785 576.5564,-365.304 585.9491,-370.2057 586.9558,-363.2785"/>
<polygon fill="#000000" stroke="#000000" points="661.5328,-381.1885 671.9322,-379.1629 662.5394,-374.2612 661.5328,-381.1885"/>
</g>
</g>
</svg>
