<?xml version="1.0" encoding="UTF-8" standalone="no"?>
<!DOCTYPE svg PUBLIC "-//W3C//DTD SVG 1.1//EN"
 "http://www.w3.org/Graphics/SVG/1.1/DTD/svg11.dtd">
<!-- Generated by graphviz version 2.40.1 (0)
 -->
<!-- Title: kilo Pages: 1 -->
<svg width="1055pt" height="871pt"
 viewBox="0.00 0.00 1055.04 870.76" xmlns="http://www.w3.org/2000/svg" xmlns:xlink="http://www.w3.org/1999/xlink">
<g id="graph0" class="graph" transform="scale(1 1) rotate(0) translate(4 866.7645)">
<title>kilo</title>
<polygon fill="#ffffff" stroke="transparent" points="-4,4 -4,-866.7645 1051.0378,-866.7645 1051.0378,4 -4,4"/>
<text text-anchor="middle" x="523.5189" y="-847.5645" font-family="Times,serif" font-size="14.00" fill="#000000">10.4.0.0/16</text>
<!-- kilo&#45;gcp&#45;worker0.sapyens.org -->
<g id="node1" class="node">
<title>kilo&#45;gcp&#45;worker0.sapyens.org</title>
<ellipse fill="none" stroke="#000000" cx="781.4137" cy="-419.8823" rx="124.4016" ry="58.8803"/>
<text text-anchor="middle" x="781.4137" y="-446.1823" font-family="Times,serif" font-size="14.00" fill="#000000">gcp</text>
<text text-anchor="middle" x="781.4137" y="-431.1823" font-family="Times,serif" font-size="14.00" fill="#000000">kilo&#45;gcp&#45;worker0.sapyens.org</text>
<text text-anchor="middle" x="781.4137" y="-416.1823" font-family="Times,serif" font-size="14.00" fill="#000000">10.2.10.0/24</text>
<text text-anchor="middle" x="781.4137" y="-401.1823" font-family="Times,serif" font-size="14.00" fill="#000000">10.1.96.6</text>
<text text-anchor="middle" x="781.4137" y="-386.1823" font-family="Times,serif" font-size="14.00" fill="#000000">10.4.0.9</text>
</g>
<!-- kilo&#45;gcp&#45;worker1.sapyens.org -->
<g id="node2" class="node">
<title>kilo&#45;gcp&#45;worker1.sapyens.org</title>
<ellipse fill="none" stroke="#000000" cx="803.4825" cy="-69.3461" rx="124.4016" ry="48.1667"/>
<text text-anchor="middle" x="803.4825" y="-88.1461" font-family="Times,serif" font-size="14.00" fill="#000000">gcp</text>
<text text-anchor="middle" x="803.4825" y="-73.1461" font-family="Times,serif" font-size="14.00" fill="#000000">kilo&#45;gcp&#45;worker1.sapyens.org</text>
<text text-anchor="middle" x="803.4825" y="-58.1461" font-family="Times,serif" font-size="14.00" fill="#000000">10.2.12.0/24</text>
<text text-anchor="middle" x="803.4825" y="-43.1461" font-family="Times,serif" font-size="14.00" fill="#000000">10.1.96.8</text>
</g>
<!-- kilo&#45;gcp&#45;worker2.sapyens.org -->
<g id="node3" class="node">
<title>kilo&#45;gcp&#45;worker2.sapyens.org</title>
<ellipse fill="none" stroke="#000000" cx="922.587" cy="-293.1296" rx="124.4016" ry="48.1667"/>
<text text-anchor="middle" x="922.587" y="-311.9296" font-family="Times,serif" font-size="14.00" fill="#000000">gcp</text>
<text text-anchor="middle" x="922.587" y="-296.9296" font-family="Times,serif" font-size="14.00" fill="#000000">kilo&#45;gcp&#45;worker2.sapyens.org</text>
<text text-anchor="middle" x="922.587" y="-281.9296" font-family="Times,serif" font-size="14.00" fill="#000000">10.2.9.0/24</text>
<text text-anchor="middle" x="922.587" y="-266.9296" font-family="Times,serif" font-size="14.00" fill="#000000">10.1.96.4</text>
</g>
<!-- kilo&#45;gcp&#45;worker3.sapyens.org -->
<g id="node4" class="node">
<title>kilo&#45;gcp&#45;worker3.sapyens.org</title>
<ellipse fill="none" stroke="#000000" cx="922.587" cy="-546.6349" rx="124.4016" ry="48.1667"/>
<text text-anchor="middle" x="922.587" y="-565.4349" font-family="Times,serif" font-size="14.00" fill="#000000">gcp</text>
<text text-anchor="middle" x="922.587" y="-550.4349" font-family="Times,serif" font-size="14.00" fill="#000000">kilo&#45;gcp&#45;worker3.sapyens.org</text>
<text text-anchor="middle" x="922.587" y="-535.4349" font-family="Times,serif" font-size="14.00" fill="#000000">10.2.8.0/24</text>
<text text-anchor="middle" x="922.587" y="-520.4349" font-family="Times,serif" font-size="14.00" fill="#000000">10.1.96.5</text>
</g>
<!-- kilo&#45;gcp&#45;worker4.sapyens.org -->
<g id="node5" class="node">
<title>kilo&#45;gcp&#45;worker4.sapyens.org</title>
<ellipse fill="none" stroke="#000000" cx="803.4825" cy="-770.4185" rx="124.4016" ry="48.1667"/>
<text text-anchor="middle" x="803.4825" y="-789.2185" font-family="Times,serif" font-size="14.00" fill="#000000">gcp</text>
<text text-anchor="middle" x="803.4825" y="-774.2185" font-family="Times,serif" font-size="14.00" fill="#000000">kilo&#45;gcp&#45;worker4.sapyens.org</text>
<text text-anchor="middle" x="803.4825" y="-759.2185" font-family="Times,serif" font-size="14.00" fill="#000000">10.2.11.0/24</text>
<text text-anchor="middle" x="803.4825" y="-744.2185" font-family="Times,serif" font-size="14.00" fill="#000000">10.1.96.7</text>
</g>
<!-- ip&#45;10&#45;0&#45;15&#45;186 -->
<g id="node6" class="node">
<title>ip&#45;10&#45;0&#45;15&#45;186</title>
<ellipse fill="none" stroke="#000000" cx="695.6072" cy="-655.6339" rx="70.0071" ry="58.8803"/>
<text text-anchor="middle" x="695.6072" y="-681.9339" font-family="Times,serif" font-size="14.00" fill="#000000">ip&#45;10&#45;0&#45;15&#45;186</text>
<text text-anchor="middle" x="695.6072" y="-666.9339" font-family="Times,serif" font-size="14.00" fill="#000000">ip&#45;10&#45;0&#45;15&#45;186</text>
<text text-anchor="middle" x="695.6072" y="-651.9339" font-family="Times,serif" font-size="14.00" fill="#000000">10.2.3.0/24</text>
<text text-anchor="middle" x="695.6072" y="-636.9339" font-family="Times,serif" font-size="14.00" fill="#000000">10.0.15.186</text>
<text text-anchor="middle" x="695.6072" y="-621.9339" font-family="Times,serif" font-size="14.00" fill="#000000">10.4.0.1</text>
</g>
<!-- ip&#45;10&#45;0&#45;29&#45;239 -->
<g id="node7" class="node">
<title>ip&#45;10&#45;0&#45;29&#45;239</title>
<ellipse fill="none" stroke="#000000" cx="478.3373" cy="-58.6899" rx="70.0071" ry="58.8803"/>
<text text-anchor="middle" x="478.3373" y="-84.9899" font-family="Times,serif" font-size="14.00" fill="#000000">ip&#45;10&#45;0&#45;29&#45;239</text>
<text text-anchor="middle" x="478.3373" y="-69.9899" font-family="Times,serif" font-size="14.00" fill="#000000">ip&#45;10&#45;0&#45;29&#45;239</text>
<text text-anchor="middle" x="478.3373" y="-54.9899" font-family="Times,serif" font-size="14.00" fill="#000000">10.2.4.0/24</text>
<text text-anchor="middle" x="478.3373" y="-39.9899" font-family="Times,serif" font-size="14.00" fill="#000000">10.0.29.239</text>
<text text-anchor="middle" x="478.3373" y="-24.9899" font-family="Times,serif" font-size="14.00" fill="#000000">10.4.0.2</text>
</g>
<!-- ip&#45;10&#45;0&#45;3&#45;226 -->
<g id="node8" class="node">
<title>ip&#45;10&#45;0&#45;3&#45;226</title>
<ellipse fill="none" stroke="#000000" cx="231.2672" cy="-102.255" rx="65.1077" ry="58.8803"/>
<text text-anchor="middle" x="231.2672" y="-128.555" font-family="Times,serif" font-size="14.00" fill="#000000">ip&#45;10&#45;0&#45;3&#45;226</text>
<text text-anchor="middle" x="231.2672" y="-113.555" font-family="Times,serif" font-size="14.00" fill="#000000">ip&#45;10&#45;0&#45;3&#45;226</text>
<text text-anchor="middle" x="231.2672" y="-98.555" font-family="Times,serif" font-size="14.00" fill="#000000">10.2.1.0/24</text>
<text text-anchor="middle" x="231.2672" y="-83.555" font-family="Times,serif" font-size="14.00" fill="#000000">10.0.3.226</text>
<text text-anchor="middle" x="231.2672" y="-68.555" font-family="Times,serif" font-size="14.00" fill="#000000">10.4.0.3</text>
</g>
<!-- ip&#45;10&#45;0&#45;31&#45;112 -->
<g id="node9" class="node">
<title>ip&#45;10&#45;0&#45;31&#45;112</title>
<ellipse fill="none" stroke="#000000" cx="70.0036" cy="-294.4415" rx="70.0071" ry="58.8803"/>
<text text-anchor="middle" x="70.0036" y="-320.7415" font-family="Times,serif" font-size="14.00" fill="#000000">ip&#45;10&#45;0&#45;31&#45;112</text>
<text text-anchor="middle" x="70.0036" y="-305.7415" font-family="Times,serif" font-size="14.00" fill="#000000">ip&#45;10&#45;0&#45;31&#45;112</text>
<text text-anchor="middle" x="70.0036" y="-290.7415" font-family="Times,serif" font-size="14.00" fill="#000000">10.2.5.0/24</text>
<text text-anchor="middle" x="70.0036" y="-275.7415" font-family="Times,serif" font-size="14.00" fill="#000000">10.0.31.112</text>
<text text-anchor="middle" x="70.0036" y="-260.7415" font-family="Times,serif" font-size="14.00" fill="#000000">10.4.0.4</text>
</g>
<!-- ip&#45;10&#45;0&#45;35&#45;46 -->
<g id="node10" class="node">
<title>ip&#45;10&#45;0&#45;35&#45;46</title>
<ellipse fill="none" stroke="#000000" cx="70.0036" cy="-545.3231" rx="65.1077" ry="58.8803"/>
<text text-anchor="middle" x="70.0036" y="-571.6231" font-family="Times,serif" font-size="14.00" fill="#000000">ip&#45;10&#45;0&#45;35&#45;46</text>
<text text-anchor="middle" x="70.0036" y="-556.6231" font-family="Times,serif" font-size="14.00" fill="#000000">ip&#45;10&#45;0&#45;35&#45;46</text>
<text text-anchor="middle" x="70.0036" y="-541.6231" font-family="Times,serif" font-size="14.00" fill="#000000">10.2.0.0/24</text>
<text text-anchor="middle" x="70.0036" y="-526.6231" font-family="Times,serif" font-size="14.00" fill="#000000">10.0.35.46</text>
<text text-anchor="middle" x="70.0036" y="-511.6231" font-family="Times,serif" font-size="14.00" fill="#000000">10.4.0.5</text>
</g>
<!-- ip&#45;10&#45;0&#45;41&#45;215 -->
<g id="node11" class="node">
<title>ip&#45;10&#45;0&#45;41&#45;215</title>
<ellipse fill="none" stroke="#000000" cx="231.2672" cy="-737.5095" rx="70.0071" ry="58.8803"/>
<text text-anchor="middle" x="231.2672" y="-763.8095" font-family="Times,serif" font-size="14.00" fill="#000000">ip&#45;10&#45;0&#45;41&#45;215</text>
<text text-anchor="middle" x="231.2672" y="-748.8095" font-family="Times,serif" font-size="14.00" fill="#000000">ip&#45;10&#45;0&#45;41&#45;215</text>
<text text-anchor="middle" x="231.2672" y="-733.8095" font-family="Times,serif" font-size="14.00" fill="#000000">10.2.2.0/24</text>
<text text-anchor="middle" x="231.2672" y="-718.8095" font-family="Times,serif" font-size="14.00" fill="#000000">10.0.41.215</text>
<text text-anchor="middle" x="231.2672" y="-703.8095" font-family="Times,serif" font-size="14.00" fill="#000000">10.4.0.6</text>
</g>
<!-- ip&#45;10&#45;0&#45;46&#45;197 -->
<g id="node12" class="node">
<title>ip&#45;10&#45;0&#45;46&#45;197</title>
<ellipse fill="none" stroke="#000000" cx="478.3373" cy="-781.0747" rx="70.0071" ry="58.8803"/>
<text text-anchor="middle" x="478.3373" y="-807.3747" font-family="Times,serif" font-size="14.00" fill="#000000">ip&#45;10&#45;0&#45;46&#45;197</text>
<text text-anchor="middle" x="478.3373" y="-792.3747" font-family="Times,serif" font-size="14.00" fill="#000000">ip&#45;10&#45;0&#45;46&#45;197</text>
<text text-anchor="middle" x="478.3373" y="-777.3747" font-family="Times,serif" font-size="14.00" fill="#000000">10.2.6.0/24</text>
<text text-anchor="middle" x="478.3373" y="-762.3747" font-family="Times,serif" font-size="14.00" fill="#000000">10.0.46.197</text>
<text text-anchor="middle" x="478.3373" y="-747.3747" font-family="Times,serif" font-size="14.00" fill="#000000">10.4.0.7</text>
</g>
<!-- ip&#45;10&#45;0&#45;6&#45;0 -->
<g id="node13" class="node">
<title>ip&#45;10&#45;0&#45;6&#45;0</title>
<ellipse fill="none" stroke="#000000" cx="695.6072" cy="-184.1307" rx="55.7232" ry="58.8803"/>
<text text-anchor="middle" x="695.6072" y="-210.4307" font-family="Times,serif" font-size="14.00" fill="#000000">ip&#45;10&#45;0&#45;6&#45;0</text>
<text text-anchor="middle" x="695.6072" y="-195.4307" font-family="Times,serif" font-size="14.00" fill="#000000">ip&#45;10&#45;0&#45;6&#45;0</text>
<text text-anchor="middle" x="695.6072" y="-180.4307" font-family="Times,serif" font-size="14.00" fill="#000000">10.2.7.0/24</text>
<text text-anchor="middle" x="695.6072" y="-165.4307" font-family="Times,serif" font-size="14.00" fill="#000000">10.0.6.0</text>
<text text-anchor="middle" x="695.6072" y="-150.4307" font-family="Times,serif" font-size="14.00" fill="#000000">10.4.0.8</text>
</g>
<!-- kilo&#45;gcp&#45;worker0.sapyens.org&#45;&gt;kilo&#45;gcp&#45;worker1.sapyens.org -->
<g id="edge1" class="edge">
<title>kilo&#45;gcp&#45;worker0.sapyens.org&#45;&gt;kilo&#45;gcp&#45;worker1.sapyens.org</title>
<path fill="none" stroke="#000000" d="M785.7573,-350.8898C789.8573,-285.7665 795.9372,-189.1946 799.804,-127.7756"/>
<polygon fill="#000000" stroke="#000000" points="782.2429,-351.0102 785.1075,-361.2104 789.229,-351.4501 782.2429,-351.0102"/>
<polygon fill="#000000" stroke="#000000" points="803.3167,-127.6821 800.452,-117.482 796.3305,-127.2422 803.3167,-127.6821"/>
</g>
<!-- kilo&#45;gcp&#45;worker0.sapyens.org&#45;&gt;kilo&#45;gcp&#45;worker2.sapyens.org -->
<g id="edge2" class="edge">
<title>kilo&#45;gcp&#45;worker0.sapyens.org&#45;&gt;kilo&#45;gcp&#45;worker2.sapyens.org</title>
<path fill="none" stroke="#000000" d="M847.2378,-360.782C853.3399,-355.3032 859.4897,-349.7816 865.5036,-344.382"/>
<polygon fill="#000000" stroke="#000000" points="844.752,-358.3101 839.6493,-367.5953 849.4285,-363.5188 844.752,-358.3101"/>
<polygon fill="#000000" stroke="#000000" points="867.9322,-346.9053 873.0348,-337.6201 863.2556,-341.6967 867.9322,-346.9053"/>
</g>
<!-- kilo&#45;gcp&#45;worker0.sapyens.org&#45;&gt;kilo&#45;gcp&#45;worker3.sapyens.org -->
<g id="edge3" class="edge">
<title>kilo&#45;gcp&#45;worker0.sapyens.org&#45;&gt;kilo&#45;gcp&#45;worker3.sapyens.org</title>
<path fill="none" stroke="#000000" d="M847.2378,-478.9825C853.3399,-484.4613 859.4897,-489.9829 865.5036,-495.3825"/>
<polygon fill="#000000" stroke="#000000" points="849.4285,-476.2457 839.6493,-472.1692 844.752,-481.4544 849.4285,-476.2457"/>
<polygon fill="#000000" stroke="#000000" points="863.2556,-498.0679 873.0348,-502.1444 867.9322,-492.8592 863.2556,-498.0679"/>
</g>
<!-- kilo&#45;gcp&#45;worker0.sapyens.org&#45;&gt;kilo&#45;gcp&#45;worker4.sapyens.org -->
<g id="edge4" class="edge">
<title>kilo&#45;gcp&#45;worker0.sapyens.org&#45;&gt;kilo&#45;gcp&#45;worker4.sapyens.org</title>
<path fill="none" stroke="#000000" d="M785.7573,-488.8747C789.8573,-553.998 795.9372,-650.5699 799.804,-711.9889"/>
<polygon fill="#000000" stroke="#000000" points="789.229,-488.3144 785.1075,-478.5541 782.2429,-488.7543 789.229,-488.3144"/>
<polygon fill="#000000" stroke="#000000" points="796.3305,-712.5223 800.452,-722.2826 803.3167,-712.0824 796.3305,-712.5223"/>
</g>
<!-- ip&#45;10&#45;0&#45;15&#45;186&#45;&gt;kilo&#45;gcp&#45;worker0.sapyens.org -->
<g id="edge12" class="edge">
<title>ip&#45;10&#45;0&#45;15&#45;186&#45;&gt;kilo&#45;gcp&#45;worker0.sapyens.org</title>
<path fill="none" stroke="#000000" d="M719.573,-589.7883C731.1442,-557.9966 745.0146,-519.8879 756.6844,-487.8255"/>
<polygon fill="#000000" stroke="#000000" points="716.1823,-588.871 716.051,-599.465 722.7601,-591.2652 716.1823,-588.871"/>
<polygon fill="#000000" stroke="#000000" points="760.0991,-488.6769 760.2304,-478.0829 753.5212,-486.2827 760.0991,-488.6769"/>
</g>
<!-- ip&#45;10&#45;0&#45;15&#45;186&#45;&gt;ip&#45;10&#45;0&#45;29&#45;239 -->
<g id="edge5" class="edge">
<title>ip&#45;10&#45;0&#45;15&#45;186&#45;&gt;ip&#45;10&#45;0&#45;29&#45;239</title>
<path fill="none" stroke="#000000" d="M671.6556,-589.8275C629.906,-475.1215 544.2725,-239.8452 502.4266,-124.8747"/>
<polygon fill="#000000" stroke="#000000" points="668.4577,-591.275 675.1669,-599.4748 675.0356,-588.8808 668.4577,-591.275"/>
<polygon fill="#000000" stroke="#000000" points="505.5907,-123.3344 498.8815,-115.1345 499.0128,-125.7286 505.5907,-123.3344"/>
</g>
<!-- ip&#45;10&#45;0&#45;15&#45;186&#45;&gt;ip&#45;10&#45;0&#45;3&#45;226 -->
<g id="edge6" class="edge">
<title>ip&#45;10&#45;0&#45;15&#45;186&#45;&gt;ip&#45;10&#45;0&#45;3&#45;226</title>
<path fill="none" stroke="#000000" d="M648.5355,-599.536C559.0551,-492.8975 365.4674,-262.1886 277.0206,-156.7818"/>
<polygon fill="#000000" stroke="#000000" points="646.1032,-602.0825 655.2123,-607.4932 651.4656,-597.5829 646.1032,-602.0825"/>
<polygon fill="#000000" stroke="#000000" points="279.6903,-154.5184 270.5812,-149.1077 274.328,-159.0179 279.6903,-154.5184"/>
</g>
<!-- ip&#45;10&#45;0&#45;15&#45;186&#45;&gt;ip&#45;10&#45;0&#45;31&#45;112 -->
<g id="edge7" class="edge">
<title>ip&#45;10&#45;0&#45;15&#45;186&#45;&gt;ip&#45;10&#45;0&#45;31&#45;112</title>
<path fill="none" stroke="#000000" d="M628.8871,-617.113C508.6866,-547.7152 257.1099,-402.4674 136.8311,-333.0244"/>
<polygon fill="#000000" stroke="#000000" points="627.4629,-620.3322 637.8732,-622.3012 630.963,-614.27 627.4629,-620.3322"/>
<polygon fill="#000000" stroke="#000000" points="138.4623,-329.9247 128.052,-327.9557 134.9622,-335.9869 138.4623,-329.9247"/>
</g>
<!-- ip&#45;10&#45;0&#45;15&#45;186&#45;&gt;ip&#45;10&#45;0&#45;35&#45;46 -->
<g id="edge8" class="edge">
<title>ip&#45;10&#45;0&#45;15&#45;186&#45;&gt;ip&#45;10&#45;0&#45;35&#45;46</title>
<path fill="none" stroke="#000000" d="M616.9585,-641.766C495.3149,-620.3169 263.1879,-579.3867 144.2642,-558.4172"/>
<polygon fill="#000000" stroke="#000000" points="616.4112,-645.2234 626.8671,-643.5131 617.6268,-638.3297 616.4112,-645.2234"/>
<polygon fill="#000000" stroke="#000000" points="144.6157,-554.9253 134.1598,-556.6355 143.4001,-561.8189 144.6157,-554.9253"/>
</g>
<!-- ip&#45;10&#45;0&#45;15&#45;186&#45;&gt;ip&#45;10&#45;0&#45;41&#45;215 -->
<g id="edge9" class="edge">
<title>ip&#45;10&#45;0&#45;15&#45;186&#45;&gt;ip&#45;10&#45;0&#45;41&#45;215</title>
<path fill="none" stroke="#000000" d="M617.0626,-669.4834C531.5442,-684.5626 395.5731,-708.5379 309.9862,-723.6292"/>
<polygon fill="#000000" stroke="#000000" points="617.8519,-672.8983 627.0922,-667.7149 616.6363,-666.0046 617.8519,-672.8983"/>
<polygon fill="#000000" stroke="#000000" points="309.3035,-720.1955 300.0632,-725.3789 310.5191,-727.0892 309.3035,-720.1955"/>
</g>
<!-- ip&#45;10&#45;0&#45;15&#45;186&#45;&gt;ip&#45;10&#45;0&#45;46&#45;197 -->
<g id="edge10" class="edge">
<title>ip&#45;10&#45;0&#45;15&#45;186&#45;&gt;ip&#45;10&#45;0&#45;46&#45;197</title>
<path fill="none" stroke="#000000" d="M628.649,-694.2922C602.0513,-709.6484 571.5248,-727.2728 544.9603,-742.6099"/>
<polygon fill="#000000" stroke="#000000" points="630.758,-697.116 637.6682,-689.0849 627.258,-691.0539 630.758,-697.116"/>
<polygon fill="#000000" stroke="#000000" points="543.025,-739.6857 536.1147,-747.7168 546.525,-745.7479 543.025,-739.6857"/>
</g>
<!-- ip&#45;10&#45;0&#45;15&#45;186&#45;&gt;ip&#45;10&#45;0&#45;6&#45;0 -->
<g id="edge11" class="edge">
<title>ip&#45;10&#45;0&#45;15&#45;186&#45;&gt;ip&#45;10&#45;0&#45;6&#45;0</title>
<path fill="none" stroke="#000000" d="M695.6072,-586.736C695.6072,-497.3381 695.6072,-342.2666 695.6072,-252.9213"/>
<polygon fill="#000000" stroke="#000000" points="692.1073,-586.871 695.6072,-596.871 699.1073,-586.871 692.1073,-586.871"/>
<polygon fill="#000000" stroke="#000000" points="699.1073,-252.8916 695.6072,-242.8917 692.1073,-252.8917 699.1073,-252.8916"/>
</g>
<!-- ip&#45;10&#45;0&#45;29&#45;239&#45;&gt;kilo&#45;gcp&#45;worker0.sapyens.org -->
<g id="edge19" class="edge">
<title>ip&#45;10&#45;0&#45;29&#45;239&#45;&gt;kilo&#45;gcp&#45;worker0.sapyens.org</title>
<path fill="none" stroke="#000000" d="M525.337,-114.7019C580.4472,-180.3797 671.5375,-288.9369 728.9174,-357.3196"/>
<polygon fill="#000000" stroke="#000000" points="528.0061,-112.4378 518.8971,-107.0271 522.6438,-116.9373 528.0061,-112.4378"/>
<polygon fill="#000000" stroke="#000000" points="726.2883,-359.6315 735.3974,-365.0422 731.6507,-355.1319 726.2883,-359.6315"/>
</g>
<!-- ip&#45;10&#45;0&#45;29&#45;239&#45;&gt;ip&#45;10&#45;0&#45;3&#45;226 -->
<g id="edge13" class="edge">
<title>ip&#45;10&#45;0&#45;29&#45;239&#45;&gt;ip&#45;10&#45;0&#45;3&#45;226</title>
<path fill="none" stroke="#000000" d="M399.2867,-72.6286C369.1707,-77.9389 334.9838,-83.967 305.3459,-89.1929"/>
<polygon fill="#000000" stroke="#000000" points="400.2742,-76.0086 409.5145,-70.8252 399.0586,-69.1149 400.2742,-76.0086"/>
<polygon fill="#000000" stroke="#000000" points="304.7219,-85.7489 295.4816,-90.9323 305.9375,-92.6425 304.7219,-85.7489"/>
</g>
<!-- ip&#45;10&#45;0&#45;29&#45;239&#45;&gt;ip&#45;10&#45;0&#45;31&#45;112 -->
<g id="edge14" class="edge">
<title>ip&#45;10&#45;0&#45;29&#45;239&#45;&gt;ip&#45;10&#45;0&#45;31&#45;112</title>
<path fill="none" stroke="#000000" d="M411.3748,-97.3507C335.5355,-141.1365 212.6817,-212.0662 136.8786,-255.8311"/>
<polygon fill="#000000" stroke="#000000" points="413.3564,-100.2481 420.2667,-92.217 409.8564,-94.1859 413.3564,-100.2481"/>
<polygon fill="#000000" stroke="#000000" points="134.7841,-252.9989 127.8739,-261.03 138.2842,-259.0611 134.7841,-252.9989"/>
</g>
<!-- ip&#45;10&#45;0&#45;29&#45;239&#45;&gt;ip&#45;10&#45;0&#45;35&#45;46 -->
<g id="edge15" class="edge">
<title>ip&#45;10&#45;0&#45;29&#45;239&#45;&gt;ip&#45;10&#45;0&#45;35&#45;46</title>
<path fill="none" stroke="#000000" d="M431.0324,-115.0657C351.979,-209.2779 194.0147,-397.5324 115.9059,-490.6188"/>
<polygon fill="#000000" stroke="#000000" points="433.9451,-117.0394 437.6919,-107.1292 428.5828,-112.5399 433.9451,-117.0394"/>
<polygon fill="#000000" stroke="#000000" points="113.0304,-488.6006 109.2837,-498.5108 118.3928,-493.1001 113.0304,-488.6006"/>
</g>
<!-- ip&#45;10&#45;0&#45;29&#45;239&#45;&gt;ip&#45;10&#45;0&#45;41&#45;215 -->
<g id="edge16" class="edge">
<title>ip&#45;10&#45;0&#45;29&#45;239&#45;&gt;ip&#45;10&#45;0&#45;41&#45;215</title>
<path fill="none" stroke="#000000" d="M454.2809,-124.7843C407.0209,-254.6302 302.557,-541.6422 255.3089,-671.4554"/>
<polygon fill="#000000" stroke="#000000" points="457.6715,-125.7018 457.8029,-115.1077 451.0937,-123.3076 457.6715,-125.7018"/>
<polygon fill="#000000" stroke="#000000" points="252.0024,-670.3069 251.871,-680.9009 258.5802,-672.7011 252.0024,-670.3069"/>
</g>
<!-- ip&#45;10&#45;0&#45;29&#45;239&#45;&gt;ip&#45;10&#45;0&#45;46&#45;197 -->
<g id="edge17" class="edge">
<title>ip&#45;10&#45;0&#45;29&#45;239&#45;&gt;ip&#45;10&#45;0&#45;46&#45;197</title>
<path fill="none" stroke="#000000" d="M478.3373,-127.7839C478.3373,-265.8787 478.3373,-574.5093 478.3373,-712.3223"/>
<polygon fill="#000000" stroke="#000000" points="481.8374,-127.4993 478.3373,-117.4994 474.8374,-127.4994 481.8374,-127.4993"/>
<polygon fill="#000000" stroke="#000000" points="474.8374,-712.3423 478.3373,-722.3424 481.8374,-712.3424 474.8374,-712.3423"/>
</g>
<!-- ip&#45;10&#45;0&#45;29&#45;239&#45;&gt;ip&#45;10&#45;0&#45;6&#45;0 -->
<g id="edge18" class="edge">
<title>ip&#45;10&#45;0&#45;29&#45;239&#45;&gt;ip&#45;10&#45;0&#45;6&#45;0</title>
<path fill="none" stroke="#000000" d="M545.3047,-97.3535C574.7281,-114.3411 608.958,-134.1038 637.3132,-150.4746"/>
<polygon fill="#000000" stroke="#000000" points="546.6865,-94.1099 536.2762,-92.1409 543.1865,-100.1721 546.6865,-94.1099"/>
<polygon fill="#000000" stroke="#000000" points="635.8891,-153.6939 646.2994,-155.6628 639.3892,-147.6317 635.8891,-153.6939"/>
</g>
<!-- ip&#45;10&#45;0&#45;3&#45;226&#45;&gt;kilo&#45;gcp&#45;worker0.sapyens.org -->
<g id="edge25" class="edge">
<title>ip&#45;10&#45;0&#45;3&#45;226&#45;&gt;kilo&#45;gcp&#45;worker0.sapyens.org</title>
<path fill="none" stroke="#000000" d="M295.1632,-139.1454C393.5183,-195.9307 582.2597,-304.9007 693.4524,-369.0978"/>
<polygon fill="#000000" stroke="#000000" points="296.6925,-135.9869 286.2822,-134.0179 293.1924,-142.0491 296.6925,-135.9869"/>
<polygon fill="#000000" stroke="#000000" points="691.9018,-372.244 702.3121,-374.2129 695.4019,-366.1818 691.9018,-372.244"/>
</g>
<!-- ip&#45;10&#45;0&#45;3&#45;226&#45;&gt;ip&#45;10&#45;0&#45;31&#45;112 -->
<g id="edge20" class="edge">
<title>ip&#45;10&#45;0&#45;3&#45;226&#45;&gt;ip&#45;10&#45;0&#45;31&#45;112</title>
<path fill="none" stroke="#000000" d="M185.2996,-157.037C163.9114,-182.5265 138.504,-212.8058 116.9904,-238.4447"/>
<polygon fill="#000000" stroke="#000000" points="188.0709,-159.1793 191.8176,-149.2691 182.7086,-154.6798 188.0709,-159.1793"/>
<polygon fill="#000000" stroke="#000000" points="114.1943,-236.3319 110.4476,-246.2421 119.5567,-240.8314 114.1943,-236.3319"/>
</g>
<!-- ip&#45;10&#45;0&#45;3&#45;226&#45;&gt;ip&#45;10&#45;0&#45;35&#45;46 -->
<g id="edge21" class="edge">
<title>ip&#45;10&#45;0&#45;3&#45;226&#45;&gt;ip&#45;10&#45;0&#45;35&#45;46</title>
<path fill="none" stroke="#000000" d="M207.3798,-167.8849C176.8491,-251.7674 124.3072,-396.1252 93.8136,-479.9055"/>
<polygon fill="#000000" stroke="#000000" points="210.7117,-168.9639 210.843,-158.3699 204.1338,-166.5697 210.7117,-168.9639"/>
<polygon fill="#000000" stroke="#000000" points="90.5201,-478.7212 90.3888,-489.3152 97.098,-481.1154 90.5201,-478.7212"/>
</g>
<!-- ip&#45;10&#45;0&#45;3&#45;226&#45;&gt;ip&#45;10&#45;0&#45;41&#45;215 -->
<g id="edge22" class="edge">
<title>ip&#45;10&#45;0&#45;3&#45;226&#45;&gt;ip&#45;10&#45;0&#45;41&#45;215</title>
<path fill="none" stroke="#000000" d="M231.2672,-171.4319C231.2672,-293.5842 231.2672,-546.1014 231.2672,-668.2865"/>
<polygon fill="#000000" stroke="#000000" points="234.7673,-171.1633 231.2672,-161.1634 227.7673,-171.1634 234.7673,-171.1633"/>
<polygon fill="#000000" stroke="#000000" points="227.7673,-668.6314 231.2672,-678.6314 234.7673,-668.6314 227.7673,-668.6314"/>
</g>
<!-- ip&#45;10&#45;0&#45;3&#45;226&#45;&gt;ip&#45;10&#45;0&#45;46&#45;197 -->
<g id="edge23" class="edge">
<title>ip&#45;10&#45;0&#45;3&#45;226&#45;&gt;ip&#45;10&#45;0&#45;46&#45;197</title>
<path fill="none" stroke="#000000" d="M255.1074,-167.7554C302.3069,-297.4351 407.1647,-585.5295 454.4238,-715.373"/>
<polygon fill="#000000" stroke="#000000" points="258.3001,-166.2939 251.5909,-158.0941 251.7223,-168.6881 258.3001,-166.2939"/>
<polygon fill="#000000" stroke="#000000" points="451.1526,-716.6188 457.8618,-724.8187 457.7305,-714.2247 451.1526,-716.6188"/>
</g>
<!-- ip&#45;10&#45;0&#45;3&#45;226&#45;&gt;ip&#45;10&#45;0&#45;6&#45;0 -->
<g id="edge24" class="edge">
<title>ip&#45;10&#45;0&#45;3&#45;226&#45;&gt;ip&#45;10&#45;0&#45;6&#45;0</title>
<path fill="none" stroke="#000000" d="M305.2861,-115.3065C395.0217,-131.1293 544.8332,-157.5451 630.4026,-172.6333"/>
<polygon fill="#000000" stroke="#000000" points="305.8,-111.8432 295.3441,-113.5535 304.5844,-118.7369 305.8,-111.8432"/>
<polygon fill="#000000" stroke="#000000" points="630.0552,-176.126 640.5111,-174.4157 631.2708,-169.2324 630.0552,-176.126"/>
</g>
<!-- ip&#45;10&#45;0&#45;31&#45;112&#45;&gt;kilo&#45;gcp&#45;worker0.sapyens.org -->
<g id="edge30" class="edge">
<title>ip&#45;10&#45;0&#45;31&#45;112&#45;&gt;kilo&#45;gcp&#45;worker0.sapyens.org</title>
<path fill="none" stroke="#000000" d="M148.4335,-308.2708C270.7177,-329.8328 507.9735,-371.6674 654.7344,-397.5453"/>
<polygon fill="#000000" stroke="#000000" points="148.9953,-304.8159 138.5395,-306.5262 147.7797,-311.7096 148.9953,-304.8159"/>
<polygon fill="#000000" stroke="#000000" points="654.249,-401.0136 664.7049,-399.3034 655.4646,-394.12 654.249,-401.0136"/>
</g>
<!-- ip&#45;10&#45;0&#45;31&#45;112&#45;&gt;ip&#45;10&#45;0&#45;35&#45;46 -->
<g id="edge26" class="edge">
<title>ip&#45;10&#45;0&#45;31&#45;112&#45;&gt;ip&#45;10&#45;0&#45;35&#45;46</title>
<path fill="none" stroke="#000000" d="M70.0036,-363.3792C70.0036,-398.5092 70.0036,-441.1131 70.0036,-476.2607"/>
<polygon fill="#000000" stroke="#000000" points="73.5037,-363.262 70.0036,-353.262 66.5037,-363.2621 73.5037,-363.262"/>
<polygon fill="#000000" stroke="#000000" points="66.5037,-476.4368 70.0036,-486.4369 73.5037,-476.4369 66.5037,-476.4368"/>
</g>
<!-- ip&#45;10&#45;0&#45;31&#45;112&#45;&gt;ip&#45;10&#45;0&#45;41&#45;215 -->
<g id="edge27" class="edge">
<title>ip&#45;10&#45;0&#45;31&#45;112&#45;&gt;ip&#45;10&#45;0&#45;41&#45;215</title>
<path fill="none" stroke="#000000" d="M94.0554,-360.5234C124.5847,-444.402 176.9313,-588.223 207.3813,-671.8836"/>
<polygon fill="#000000" stroke="#000000" points="97.3007,-359.2062 90.5915,-351.0064 90.7229,-361.6004 97.3007,-359.2062"/>
<polygon fill="#000000" stroke="#000000" points="204.0926,-673.0816 210.8018,-681.2814 210.6705,-670.6874 204.0926,-673.0816"/>
</g>
<!-- ip&#45;10&#45;0&#45;31&#45;112&#45;&gt;ip&#45;10&#45;0&#45;46&#45;197 -->
<g id="edge28" class="edge">
<title>ip&#45;10&#45;0&#45;31&#45;112&#45;&gt;ip&#45;10&#45;0&#45;46&#45;197</title>
<path fill="none" stroke="#000000" d="M117.2733,-350.7753C195.898,-444.4766 352.6497,-631.2859 431.1919,-724.889"/>
<polygon fill="#000000" stroke="#000000" points="119.7581,-348.2915 110.649,-342.8808 114.3958,-352.791 119.7581,-348.2915"/>
<polygon fill="#000000" stroke="#000000" points="428.7472,-727.4205 437.8562,-732.8312 434.1095,-722.921 428.7472,-727.4205"/>
</g>
<!-- ip&#45;10&#45;0&#45;31&#45;112&#45;&gt;ip&#45;10&#45;0&#45;6&#45;0 -->
<g id="edge29" class="edge">
<title>ip&#45;10&#45;0&#45;31&#45;112&#45;&gt;ip&#45;10&#45;0&#45;6&#45;0</title>
<path fill="none" stroke="#000000" d="M148.9172,-280.5269C273.7675,-258.5124 514.5261,-216.0601 630.2998,-195.6461"/>
<polygon fill="#000000" stroke="#000000" points="147.984,-277.1373 138.7437,-282.3207 149.1995,-284.031 147.984,-277.1373"/>
<polygon fill="#000000" stroke="#000000" points="631.1938,-199.0426 640.4341,-193.8592 629.9782,-192.1489 631.1938,-199.0426"/>
</g>
<!-- ip&#45;10&#45;0&#45;35&#45;46&#45;&gt;kilo&#45;gcp&#45;worker0.sapyens.org -->
<g id="edge34" class="edge">
<title>ip&#45;10&#45;0&#45;35&#45;46&#45;&gt;kilo&#45;gcp&#45;worker0.sapyens.org</title>
<path fill="none" stroke="#000000" d="M144.2043,-532.2395C265.1019,-510.922 505.9752,-468.4495 654.4686,-442.2661"/>
<polygon fill="#000000" stroke="#000000" points="143.3168,-528.8419 134.0766,-534.0253 144.5324,-535.7355 143.3168,-528.8419"/>
<polygon fill="#000000" stroke="#000000" points="655.3152,-445.6709 664.5555,-440.4875 654.0996,-438.7773 655.3152,-445.6709"/>
</g>
<!-- ip&#45;10&#45;0&#45;35&#45;46&#45;&gt;ip&#45;10&#45;0&#45;41&#45;215 -->
<g id="edge31" class="edge">
<title>ip&#45;10&#45;0&#45;35&#45;46&#45;&gt;ip&#45;10&#45;0&#45;41&#45;215</title>
<path fill="none" stroke="#000000" d="M115.9711,-600.105C137.3593,-625.5945 162.7667,-655.8739 184.2803,-681.5127"/>
<polygon fill="#000000" stroke="#000000" points="118.5622,-597.7479 109.4531,-592.3372 113.1998,-602.2474 118.5622,-597.7479"/>
<polygon fill="#000000" stroke="#000000" points="181.7141,-683.8995 190.8231,-689.3102 187.0764,-679.4 181.7141,-683.8995"/>
</g>
<!-- ip&#45;10&#45;0&#45;35&#45;46&#45;&gt;ip&#45;10&#45;0&#45;46&#45;197 -->
<g id="edge32" class="edge">
<title>ip&#45;10&#45;0&#45;35&#45;46&#45;&gt;ip&#45;10&#45;0&#45;46&#45;197</title>
<path fill="none" stroke="#000000" d="M133.9165,-582.2232C209.4553,-625.8355 334.5683,-698.0696 411.4013,-742.4291"/>
<polygon fill="#000000" stroke="#000000" points="135.4836,-579.0865 125.0733,-577.1176 131.9835,-585.1487 135.4836,-579.0865"/>
<polygon fill="#000000" stroke="#000000" points="410.115,-745.7279 420.5253,-747.6969 413.615,-739.6657 410.115,-745.7279"/>
</g>
<!-- ip&#45;10&#45;0&#45;35&#45;46&#45;&gt;ip&#45;10&#45;0&#45;6&#45;0 -->
<g id="edge33" class="edge">
<title>ip&#45;10&#45;0&#45;35&#45;46&#45;&gt;ip&#45;10&#45;0&#45;6&#45;0</title>
<path fill="none" stroke="#000000" d="M133.711,-508.5416C255.5526,-438.1963 519.9072,-285.5711 637.3525,-217.764"/>
<polygon fill="#000000" stroke="#000000" points="131.8837,-505.5551 124.9734,-513.5862 135.3837,-511.6173 131.8837,-505.5551"/>
<polygon fill="#000000" stroke="#000000" points="639.3171,-220.6713 646.2273,-212.6401 635.817,-214.6091 639.3171,-220.6713"/>
</g>
<!-- ip&#45;10&#45;0&#45;41&#45;215&#45;&gt;kilo&#45;gcp&#45;worker0.sapyens.org -->
<g id="edge37" class="edge">
<title>ip&#45;10&#45;0&#45;41&#45;215&#45;&gt;kilo&#45;gcp&#45;worker0.sapyens.org</title>
<path fill="none" stroke="#000000" d="M298.068,-698.942C397.2263,-641.693 583.465,-534.168 693.559,-470.6052"/>
<polygon fill="#000000" stroke="#000000" points="296.0129,-696.087 289.1027,-704.1182 299.513,-702.1492 296.0129,-696.087"/>
<polygon fill="#000000" stroke="#000000" points="695.4225,-473.5708 702.3327,-465.5397 691.9224,-467.5087 695.4225,-473.5708"/>
</g>
<!-- ip&#45;10&#45;0&#45;41&#45;215&#45;&gt;ip&#45;10&#45;0&#45;46&#45;197 -->
<g id="edge35" class="edge">
<title>ip&#45;10&#45;0&#45;41&#45;215&#45;&gt;ip&#45;10&#45;0&#45;46&#45;197</title>
<path fill="none" stroke="#000000" d="M310.2744,-751.4406C338.8129,-756.4727 371.0116,-762.1502 399.5327,-767.1793"/>
<polygon fill="#000000" stroke="#000000" points="310.5458,-747.9346 300.09,-749.6448 309.3303,-754.8282 310.5458,-747.9346"/>
<polygon fill="#000000" stroke="#000000" points="398.9996,-770.6392 409.4555,-768.9289 400.2152,-763.7455 398.9996,-770.6392"/>
</g>
<!-- ip&#45;10&#45;0&#45;41&#45;215&#45;&gt;ip&#45;10&#45;0&#45;6&#45;0 -->
<g id="edge36" class="edge">
<title>ip&#45;10&#45;0&#45;41&#45;215&#45;&gt;ip&#45;10&#45;0&#45;6&#45;0</title>
<path fill="none" stroke="#000000" d="M278.1214,-681.6708C368.2143,-574.3023 564.4167,-340.4774 651.9402,-236.171"/>
<polygon fill="#000000" stroke="#000000" points="275.4087,-679.4586 271.662,-689.3688 280.7711,-683.9581 275.4087,-679.4586"/>
<polygon fill="#000000" stroke="#000000" points="654.8088,-238.1972 658.5556,-228.287 649.4465,-233.6977 654.8088,-238.1972"/>
</g>
<!-- ip&#45;10&#45;0&#45;46&#45;197&#45;&gt;kilo&#45;gcp&#45;worker0.sapyens.org -->
<g id="edge39" class="edge">
<title>ip&#45;10&#45;0&#45;46&#45;197&#45;&gt;kilo&#45;gcp&#45;worker0.sapyens.org</title>
<path fill="none" stroke="#000000" d="M525.337,-725.0626C580.4472,-659.3848 671.5375,-550.8276 728.9174,-482.4449"/>
<polygon fill="#000000" stroke="#000000" points="522.6438,-722.8272 518.8971,-732.7374 528.0061,-727.3267 522.6438,-722.8272"/>
<polygon fill="#000000" stroke="#000000" points="731.6507,-484.6326 735.3974,-474.7224 726.2883,-480.1331 731.6507,-484.6326"/>
</g>
<!-- ip&#45;10&#45;0&#45;46&#45;197&#45;&gt;ip&#45;10&#45;0&#45;6&#45;0 -->
<g id="edge38" class="edge">
<title>ip&#45;10&#45;0&#45;46&#45;197&#45;&gt;ip&#45;10&#45;0&#45;6&#45;0</title>
<path fill="none" stroke="#000000" d="M502.3027,-715.2302C544.2218,-600.0585 630.3516,-363.4189 672.0101,-248.9631"/>
<polygon fill="#000000" stroke="#000000" points="498.9089,-714.3216 498.7775,-724.9156 505.4867,-716.7158 498.9089,-714.3216"/>
<polygon fill="#000000" stroke="#000000" points="675.4057,-249.8668 675.5371,-239.2728 668.8279,-247.4727 675.4057,-249.8668"/>
</g>
<!-- ip&#45;10&#45;0&#45;6&#45;0&#45;&gt;kilo&#45;gcp&#45;worker0.sapyens.org -->
<g id="edge40" class="edge">
<title>ip&#45;10&#45;0&#45;6&#45;0&#45;&gt;kilo&#45;gcp&#45;worker0.sapyens.org</title>
<path fill="none" stroke="#000000" d="M719.1651,-248.8555C730.8838,-281.0524 745.0381,-319.9411 756.8868,-352.4952"/>
<polygon fill="#000000" stroke="#000000" points="722.3259,-247.3062 715.6167,-239.1064 715.748,-249.7004 722.3259,-247.3062"/>
<polygon fill="#000000" stroke="#000000" points="753.6145,-353.7381 760.3237,-361.9379 760.1924,-351.3439 753.6145,-353.7381"/>
</g>
</g>
</svg>
